<svg xmlns="http://www.w3.org/2000/svg">

    <symbol id="auth-icon" viewBox="0 0 33 29">
        <path fill="none" d="m17.438 9.438 6.24 5.062-6.24 5.063" stroke="currentColor" stroke-width="2"
              stroke-linecap="round" stroke-linejoin="round"/>
        <path d="M22.6 14.5H1m8.116-6.75V2.687c0-.447.22-.876.61-1.193.39-.316.919-.494 1.47-.494H29.92c.551 0 1.08.178 1.47.494.39.317.61.746.61 1.194v23.625c0 .447-.22.876-.61 1.193-.39.316-.919.494-1.47.494H11.197c-.552 0-1.081-.178-1.471-.494-.39-.317-.61-.746-.61-1.194V21.25"
              stroke="currentColor" stroke-width="2" stroke-linecap="round" stroke-linejoin="round" fill="none"/>
    </symbol>
    <symbol id="footer-logo" viewBox="0 0 46 41">
        <path d="m37.09 23.493-1.808 1.014 3.977 6.952-12.797-7.386.072-14.7 3.976 6.88 1.88-1.087L23.93.685v24.908l21.544 12.455-8.385-14.555ZM18.003 40.148v-2.173H9.977l12.811-7.385L35.5 37.975h-8.025v2.173H44.32L22.788 27.62 1.23 40.148h16.774ZM21.544.612l-8.386 14.554 1.808 1.086 4.049-6.878v14.699L6.217 31.459l3.977-6.952-1.808-1.014L0 38.048l21.544-12.455V.613Z"
              fill="#F86401"/>
    </symbol>
    <symbol id="telegram-icon" viewBox="0 0 35 35">
        <path d="M17.5 0C7.836 0 0 7.836 0 17.5S7.836 35 17.5 35 35 27.164 35 17.5 27.164 0 17.5 0Zm8.595 11.989-2.872 13.533c-.212.96-.784 1.193-1.581.741l-4.375-3.223-2.11 2.033c-.203.263-.52.43-.874.43h-.007l.31-4.453 8.109-7.324c.35-.31-.08-.487-.544-.177l-10.018 6.31-4.316-1.348c-.934-.296-.96-.934.197-1.392l16.867-6.5c.784-.287 1.467.186 1.213 1.371l.001-.001Z"
              fill="currentColor"/>
    </symbol>
    <symbol id="youtube-icon" viewBox="0 0 35 35">
        <path d="m15.169 20.87 5.729-3.363-5.73-3.363v6.726Z" fill="currentColor"/>
        <path d="M17.5 0C7.834 0 0 7.834 0 17.5S7.834 35 17.5 35 35 27.166 35 17.5 27.166 0 17.5 0Zm8.75 20.63c0 3.015-3.015 3.015-3.015 3.015h-11.47c-3.015 0-3.015-3.014-3.015-3.014v-6.255c0-3.015 3.015-3.015 3.015-3.015h11.47c3.015 0 3.015 3.015 3.015 3.015v6.255Z"
              fill="currentColor"/>
    </symbol>
    <symbol id="vk-icon" viewBox="0 0 35 35">
        <path d="M17.5 0C7.835 0 0 7.835 0 17.5S7.835 35 17.5 35 35 27.165 35 17.5 27.165 0 17.5 0Zm6.73 19.744s1.548 1.528 1.929 2.237c.01.014.016.029.02.036.155.26.191.463.115.614-.128.252-.565.376-.715.387h-2.734c-.19 0-.587-.05-1.068-.381-.37-.259-.735-.684-1.09-1.097-.531-.617-.99-1.149-1.453-1.149a.557.557 0 0 0-.174.028c-.35.113-.798.612-.798 1.943 0 .415-.328.654-.56.654H16.45c-.427 0-2.649-.15-4.617-2.226-2.41-2.543-4.58-7.643-4.598-7.69-.137-.33.146-.507.454-.507h2.762c.368 0 .488.224.572.423.099.231.46 1.152 1.052 2.187.96 1.688 1.55 2.374 2.022 2.374a.547.547 0 0 0 .253-.066c.616-.343.501-2.54.474-2.995 0-.086-.002-.983-.317-1.413-.226-.312-.61-.43-.844-.474.094-.13.219-.236.362-.308.423-.211 1.185-.242 1.942-.242h.421c.82.01 1.032.063 1.329.138.602.144.614.532.561 1.861-.016.378-.032.804-.032 1.307 0 .11-.006.226-.006.35-.018.677-.04 1.444.438 1.76.062.039.134.06.207.06.166 0 .666 0 2.018-2.32.418-.748.78-1.524 1.085-2.323.027-.048.108-.194.202-.25a.485.485 0 0 1 .226-.053h3.247c.354 0 .596.053.642.19.08.217-.015.878-1.497 2.885l-.662.874c-1.343 1.76-1.343 1.85.084 3.186Z"
              fill="currentColor"/>
    </symbol>
    <symbol id="rutube" viewBox="0 0 36 37">
        <circle cx="18" cy="18.5991" r="18" fill="currentColor"/>
        <path d="M22.0411 13.095H8.50447V26.6571H12.2721V22.2449H19.4916L22.7856 26.6571H27.0043L23.3721 22.2246C24.5002 22.062 25.3123 21.6756 25.8087 21.0656C26.305 20.4556 26.5532 19.4796 26.5532 18.1783V17.1616C26.5532 16.389 26.4631 15.779 26.3051 15.3114C26.1471 14.8437 25.8763 14.437 25.4928 14.071C25.0867 13.7254 24.6356 13.4814 24.0941 13.3188C23.5526 13.1765 22.8757 13.095 22.0411 13.095ZM21.432 19.256H12.2721V16.0839H21.432C21.9507 16.0839 22.3117 16.1652 22.4922 16.3076C22.6727 16.4499 22.7856 16.7142 22.7856 17.1006V18.2393C22.7856 18.6459 22.6727 18.9102 22.4922 19.0525C22.3117 19.1948 21.9508 19.2558 21.432 19.2558V19.256Z"
              fill="white"/>
        <path d="M27.0049 11.5002C28.1082 11.5002 29.0032 10.6692 29.0032 9.64418C29.0032 8.61913 28.1082 7.78821 27.0049 7.78821C25.9008 7.78821 25.0057 8.61913 25.0057 9.64418C25.0057 10.6692 25.9008 11.5002 27.0049 11.5002Z"
              fill="white"/>
    </symbol>
    <symbol id="social-network-icon" viewBox="0 0 35 35">
        <path d="M34.228 16.725h.008a.763.763 0 0 0 .761-.834A17.546 17.546 0 0 0 19.112.002a.764.764 0 0 0-.834.77c.133 11.214 1.613 15.796 15.95 15.953Zm0 1.55c-14.337.156-15.816 4.738-15.949 15.952a.764.764 0 0 0 .834.77 17.544 17.544 0 0 0 15.884-15.889.763.763 0 0 0-.2-.588.806.806 0 0 0-.57-.245ZM15.837.006C7.426.797.767 7.478.004 15.893a.763.763 0 0 0 .76.833h.01c14.29-.165 15.765-4.744 15.9-15.95a.766.766 0 0 0-.837-.77ZM.773 18.274c-.237-.027-.424.086-.57.245a.766.766 0 0 0-.2.588c.763 8.414 7.423 15.095 15.834 15.886a.765.765 0 0 0 .836-.77c-.135-11.205-1.61-15.785-15.9-15.95Z"
              fill="currentColor"/>
    </symbol>
    <symbol id="collapse-arrow-icon" viewBox="0 0 32 11">
        <path d="M19.763.639v2.595h3.855l-7.346 4.42-7.274-4.42h3.855V.639H.563l15.708 10.194L32 .64H19.763Z"
              fill="currentColor"/>
    </symbol>
    <symbol id="document-icon" viewBox="0 0 13 16">
        <path d="M.929 13.204h.928v.937c0 .249.098.488.272.663.174.176.41.275.657.275h9.285a.924.924 0 0 0 .657-.275.942.942 0 0 0 .272-.663V2.891a.942.942 0 0 0-.272-.663.924.924 0 0 0-.657-.274h-.928v-.938a.942.942 0 0 0-.272-.663.924.924 0 0 0-.657-.274H.93a.924.924 0 0 0-.657.274.942.942 0 0 0-.272.663v11.25c0 .249.098.488.272.663.174.176.41.275.657.275Zm9.285-.938H.93V1.016h9.285v11.25Zm1.857-9.375v11.25H2.786v-.937h7.428a.924.924 0 0 0 .657-.275.942.942 0 0 0 .272-.663V2.891h.928Zm-8.357.47c0 .123.05.243.136.33a.462.462 0 0 0 .329.138H8.82c.124 0 .242-.05.329-.137a.471.471 0 0 0-.329-.8H4.18a.462.462 0 0 0-.329.137.471.471 0 0 0-.136.331ZM2.321 6.64h6.5c.124 0 .242-.049.329-.137a.471.471 0 0 0-.329-.8h-6.5a.462.462 0 0 0-.328.137.471.471 0 0 0 .328.8Zm0 1.875h6.5c.124 0 .242-.049.329-.137a.471.471 0 0 0-.329-.8h-6.5a.462.462 0 0 0-.328.137.471.471 0 0 0 .328.8Zm0 1.875h6.5c.124 0 .242-.049.329-.137a.471.471 0 0 0-.329-.8h-6.5a.462.462 0 0 0-.328.137.471.471 0 0 0 .328.8Z"
              fill="currentColor"/>
    </symbol>
    <symbol id="back-to-top-arrow" viewBox="0 0 40 40">
        <path fill-rule="evenodd" clip-rule="evenodd"
              d="M2.5 20.552a17.5 17.5 0 1 0 35 0 17.5 17.5 0 0 0-35 0Zm37.5 0a20 20 0 1 1-40 0 20 20 0 0 1 40 0Zm-18.75 8.75a1.25 1.25 0 0 1-2.5 0V14.82l-5.365 5.367a1.252 1.252 0 0 1-1.77-1.77l7.5-7.5a1.252 1.252 0 0 1 1.77 0l7.5 7.5a1.252 1.252 0 0 1-1.77 1.77L21.25 14.82v14.482Z"
              fill="currentColor"/>
    </symbol>
    <symbol id="location-icon" viewBox="0 0 13 16">
        <path d="M6.5 8.899a2.656 2.656 0 1 1 0-5.313 2.656 2.656 0 0 1 0 5.313Zm0-4.25a1.594 1.594 0 1 0 0 3.187 1.594 1.594 0 0 0 0-3.187Z"
              fill="currentColor"/>
        <path d="M6.5 15.274 2.02 9.989c-.026-.03-.186-.24-.186-.24A5.785 5.785 0 0 1 .657 6.243a5.844 5.844 0 0 1 11.688 0 5.782 5.782 0 0 1-1.177 3.504v.002s-.16.21-.184.237l-4.483 5.288ZM2.683 9.109s.124.163.153.199L6.5 13.63l3.67-4.33c.024-.029.149-.194.149-.194.625-.824.963-1.83.962-2.864a4.781 4.781 0 1 0-9.563 0 4.731 4.731 0 0 0 .963 2.866Z"
              fill="currentColor"/>
    </symbol>
    <symbol id="gift-icon" viewBox="0 0 15 16">
        <path d="M14.606 3.494h-2.37c.25-.33.396-.74.396-1.184A1.976 1.976 0 0 0 10.66.336c-1.098 0-2.018.87-2.47 1.388-.272.314-.507.65-.688.975a5.82 5.82 0 0 0-.69-.975C6.362 1.206 5.442.336 4.344.336A1.976 1.976 0 0 0 2.369 2.31c0 .444.148.854.396 1.184H.395a.395.395 0 0 0-.394.395v2.368c0 .218.177.395.394.395H.79v7.5c0 .653.532 1.184 1.184 1.184h11.053c.653 0 1.184-.53 1.184-1.184v-7.5h.395a.395.395 0 0 0 .395-.395V3.89a.395.395 0 0 0-.395-.395Zm-5.82-1.252c.617-.71 1.3-1.116 1.873-1.116.652 0 1.184.531 1.184 1.184 0 .653-.531 1.184-1.184 1.184H7.992c.136-.349.413-.814.793-1.252Zm-.101 12.305H6.317V4.284h2.368v10.263ZM3.159 2.31c0-.653.53-1.184 1.184-1.184.573 0 1.256.406 1.873 1.116.38.438.657.903.794 1.252H4.343A1.186 1.186 0 0 1 3.159 2.31ZM.79 4.284h4.737v1.579H.79v-1.58Zm.79 9.868v-7.5h3.947v7.895H1.974a.395.395 0 0 1-.394-.395Zm11.842 0a.395.395 0 0 1-.395.395H9.474V6.652h3.948v7.5Zm.79-8.29H9.473V4.285h4.737v1.579Z"
              fill="currentColor"/>
    </symbol>
    <symbol id="question-icon" viewBox="0 0 15 16" fill="none">
        <path d="M5.238 5.814c0-2.359 3.707-2.359 3.707 0 0 1.685-1.685 1.348-1.685 3.37M7.26 11.887l.007-.007"
              stroke="currentColor" stroke-width="1.011" stroke-linecap="round" stroke-linejoin="round"/>
        <path d="M7.26 14.577a6.74 6.74 0 1 0-5.838-3.37L.857 14.24l3.033-.565a6.71 6.71 0 0 0 3.37.902Z"
              stroke="currentColor" stroke-width="1.011" stroke-linecap="round" stroke-linejoin="round"/>
    </symbol>
    <symbol id="user-icon" viewBox="0 0 17 16">
        <path d="M6.865 0a3.979 3.979 0 0 0-2.73 1.072 3.566 3.566 0 0 0-1.132 2.585v2.602c0 .437.116.867.336 1.25l.947 1.644-2.511 1.545a2.665 2.665 0 0 0-.922.944c-.22.383-.334.811-.333 1.247v2.784h9.93v-1.045H1.624v-1.74c0-.26.068-.518.2-.747.132-.23.322-.425.553-.566l3.368-2.073-1.436-2.493a1.507 1.507 0 0 1-.202-.75V3.657c0-.693.29-1.357.808-1.847a2.84 2.84 0 0 1 1.95-.765 2.84 2.84 0 0 1 1.951.765c.518.49.808 1.154.808 1.847v2.602c0 .262-.07.52-.202.75L7.985 9.502l2.466 1.517V9.773l-1.008-.62.947-1.644a2.51 2.51 0 0 0 .337-1.25V3.657a3.566 3.566 0 0 0-1.133-2.585A3.979 3.979 0 0 0 6.864 0ZM14.313 12.538v-2.09h-1.104v2.09h-2.207v1.045h2.207v2.09h1.104v-2.09h2.207v-1.045h-2.207Z"
              fill="currentColor"/>
    </symbol>
    <symbol id="check-icon" viewBox="0 0 18 18">
        <path d="M1.928 17.357A1.928 1.928 0 0 1 0 15.428V2.572A1.928 1.928 0 0 1 1.928.643h10.286a.643.643 0 0 1 0 1.286H1.928a.643.643 0 0 0-.642.643v12.856a.643.643 0 0 0 .642.643h12.857a.643.643 0 0 0 .643-.643V9a.643.643 0 1 1 1.285 0v6.428a1.928 1.928 0 0 1-1.928 1.929H1.928Z"
              fill="currentColor"/>
        <path d="m8.433 13.44 9.37-10.795a.79.79 0 0 0 .146-.25.874.874 0 0 0 0-.592.79.79 0 0 0-.145-.25.672.672 0 0 0-.218-.168.594.594 0 0 0-.512 0 .674.674 0 0 0-.218.168l-8.897 10.25-3.542-4.081a.673.673 0 0 0-.217-.168.594.594 0 0 0-.513 0 .673.673 0 0 0-.218.168.789.789 0 0 0-.145.25.875.875 0 0 0 0 .591.789.789 0 0 0 .145.25l4.016 4.627a.673.673 0 0 0 .218.168.593.593 0 0 0 .513 0 .673.673 0 0 0 .217-.168Z"
              style="fill: var(--is-checked)"/>
    </symbol>
    <symbol id="briefcase-icon" viewBox="0 0 18 17">
        <path d="M.5 3.056a.5.5 0 0 0-.5.5V6.44a.5.5 0 0 0 .385.487L6.7 8.41a.48.48 0 0 0 .59-.468.48.48 0 0 1 .48-.48h2.415a.48.48 0 0 1 .48.48c0 .31.29.54.59.468l6.36-1.496A.5.5 0 0 0 18 6.428V3.556a.5.5 0 0 0-.5-.5H.5Z"
              fill="silver"/>
        <path d="M10.664 11.463a.5.5 0 0 1-.5.5H7.79a.5.5 0 0 1-.5-.5v-1.367a.5.5 0 0 0-.385-.487L.614 8.13A.5.5 0 0 0 0 8.617v7.159a.5.5 0 0 0 .5.5h17a.5.5 0 0 0 .5-.5v-7.17a.5.5 0 0 0-.614-.486l-6.336 1.49a.5.5 0 0 0-.386.487v1.367Z"
              fill="silver"/>
        <path d="M9.82 8.306H8.133v2.813H9.82V8.306ZM6.342 2.497a.25.25 0 0 1 .074-.18.25.25 0 0 1 .18-.074h4.809a.25.25 0 0 1 .179.075.25.25 0 0 1 .074.179v.766a.5.5 0 0 0 .5.5h.519a.5.5 0 0 0 .5-.5v-.766A1.77 1.77 0 0 0 11.405.725h-4.81a1.772 1.772 0 0 0-1.771 1.772v.766a.5.5 0 0 0 .5.5h.518a.5.5 0 0 0 .5-.5v-.766Z"
              fill="silver"/>
    </symbol>
    <symbol id="eye-icon" viewBox="0 0 18 13">
        <path d="M8.643.826C3.217.826 0 6.663 0 6.663S3.217 12.5 8.643 12.5c5.297 0 8.514-5.837 8.514-5.837S13.94.826 8.643.826ZM8.579 2.77c2.38 0 4.289 1.752 4.289 3.892 0 2.16-1.909 3.891-4.29 3.891-2.358 0-4.289-1.731-4.289-3.891 0-2.14 1.93-3.892 4.29-3.892Zm0 1.946c-1.18 0-2.145.876-2.145 1.946 0 1.07.965 1.946 2.145 1.946 1.18 0 2.144-.876 2.144-1.946 0-.195-.086-.37-.128-.545a1.067 1.067 0 0 1-.944.545c-.6 0-1.072-.428-1.072-.973 0-.39.257-.7.6-.856-.193-.058-.386-.117-.6-.117Z"
              fill="currentColor"/>
    </symbol>
    <symbol id="comment-icon" viewBox="0 0 16 14">
        <path d="M.157 2.466c0-.44.198-.863.55-1.174.353-.312.83-.487 1.329-.487h11.272c.499 0 .976.175 1.329.487.352.311.55.733.55 1.174v6.64c0 .44-.198.863-.55 1.174a2.01 2.01 0 0 1-1.329.487H4.304c-.25 0-.488.087-.665.243L.96 13.378a.492.492 0 0 1-.24.114.527.527 0 0 1-.272-.024.461.461 0 0 1-.21-.152.382.382 0 0 1-.08-.231V2.465Zm3.288.83a.503.503 0 0 0-.332.121.392.392 0 0 0-.138.294c0 .11.05.215.138.293a.503.503 0 0 0 .332.122h8.454a.503.503 0 0 0 .332-.122.392.392 0 0 0 .138-.293c0-.11-.05-.216-.138-.294a.503.503 0 0 0-.332-.121H3.445Zm0 2.075a.503.503 0 0 0-.332.122.392.392 0 0 0-.138.293c0 .11.05.216.138.293a.503.503 0 0 0 .332.122h8.454a.503.503 0 0 0 .332-.122.392.392 0 0 0 .138-.293c0-.11-.05-.216-.138-.293a.503.503 0 0 0-.332-.122H3.445Zm0 2.075a.503.503 0 0 0-.332.122.392.392 0 0 0-.138.293c0 .11.05.216.138.294a.503.503 0 0 0 .332.121h4.697a.503.503 0 0 0 .332-.121.392.392 0 0 0 .137-.294c0-.11-.049-.215-.137-.293a.503.503 0 0 0-.332-.122H3.445Z"
              fill="currentColor"/>
    </symbol>
    <symbol id="pagination-arrow-next" viewBox="0 0 26 26">
        <path fill-rule="evenodd" clip-rule="evenodd"
              d="M23.938 3.449a1.563 1.563 0 0 0-1.563-1.562H3.625a1.562 1.562 0 0 0-1.563 1.562V22.2a1.562 1.562 0 0 0 1.563 1.563h18.75a1.563 1.563 0 0 0 1.563-1.563V3.45ZM.5 3.449A3.125 3.125 0 0 1 3.625.324h18.75A3.125 3.125 0 0 1 25.5 3.45V22.2a3.125 3.125 0 0 1-3.125 3.125H3.625A3.125 3.125 0 0 1 .5 22.2V3.45Zm7.031 8.594a.781.781 0 1 0 0 1.562h9.052l-3.355 3.353a.783.783 0 0 0 1.106 1.107l4.688-4.688a.781.781 0 0 0 0-1.106l-4.688-4.688a.783.783 0 0 0-1.106 1.107l3.355 3.353H7.53Z"
              fill="currentColor"/>
    </symbol>
    <symbol id="pagination-arrow-prev" viewBox="0 0 26 26">
        <path fill-rule="evenodd" clip-rule="evenodd"
              d="M23.714 3.76a1.563 1.563 0 0 0-1.563-1.563H3.401A1.562 1.562 0 0 0 1.84 3.759v18.75A1.562 1.562 0 0 0 3.4 24.072h18.75a1.562 1.562 0 0 0 1.563-1.563V3.76Zm-23.438 0A3.125 3.125 0 0 1 3.401.633h18.75a3.125 3.125 0 0 1 3.125 3.125v18.75a3.125 3.125 0 0 1-3.125 3.125H3.401A3.125 3.125 0 0 1 .276 22.51V3.76Zm17.969 8.593a.78.78 0 1 1 0 1.562H9.193l3.355 3.354a.782.782 0 1 1-1.106 1.106l-4.688-4.688a.782.782 0 0 1 0-1.106l4.688-4.687A.782.782 0 0 1 12.548 9l-3.355 3.353h9.052Z"
              fill="currentColor"/>
    </symbol>
    <symbol id="pagination-desktop-arrow-prev" viewBox="0 0 13 20">
        <path d="M9.734 16.481a.728.728 0 0 0 .43-.663V4.182a.728.728 0 0 0-1.21-.544L2.407 9.456a.727.727 0 0 0 0 1.088l6.545 5.818a.727.727 0 0 0 .781.12Z"
              fill="currentColor"/>
    </symbol>
    <symbol id="pagination-desktop-arrow-next" viewBox="0 0 13 16">
        <path d="M2.593 14.481a.728.728 0 0 1-.43-.663V2.182a.727.727 0 0 1 1.21-.544L9.92 7.456a.726.726 0 0 1 0 1.088l-6.545 5.818a.727.727 0 0 1-.781.12Z"
              fill="currentColor"/>
    </symbol>
    <symbol id="cross-icon" viewBox="0 0 23 23">
        <path fill-rule="evenodd" clip-rule="evenodd"
              d="M19.915 3.085a.717.717 0 0 1 0 1.018L4.103 19.915a.72.72 0 0 1-1.018-1.018L18.897 3.085a.717.717 0 0 1 1.018 0Z"
              fill="currentColor"/>
        <path fill-rule="evenodd" clip-rule="evenodd"
              d="M3.085 3.085a.719.719 0 0 0 0 1.018l15.812 15.812a.72.72 0 0 0 1.018-1.018L4.103 3.085a.719.719 0 0 0-1.018 0Z"
              fill="currentColor"/>
    </symbol>
    <symbol id="rating-arrow-icon" viewBox="0 0 15 11">
        <path d="M1.295 1.701h12.408L7.5 8.791l-6.204-7.09Zm-.974.853 6.204 7.089a1.294 1.294 0 0 0 1.948 0l6.204-7.09c.733-.836.138-2.146-.974-2.146H1.295A1.294 1.294 0 0 0 .32 2.554Z"
              fill="currentColor"/>
    </symbol>
    <symbol id="join-icon" viewBox="0 0 29 30">
        <path d="M9.667 5H21.75c1.335 0 2.417 1.12 2.417 2.5v15c0 1.38-1.082 2.5-2.417 2.5H9.667M4.833 15h12.084"
              stroke="currentColor" stroke-width="2" stroke-linecap="round" fill="none"/>
        <path d="m13.292 10 3.124 3.232c.944.977.944 2.56 0 3.536L13.292 20" stroke="currentColor" stroke-width="2"
              stroke-linecap="round" fill="none"/>
    </symbol>
    <symbol id="share-icon" viewBox="0 0 26 25">
        <path d="M13 0C6.1 0 .5 5.6.5 12.5S6.1 25 13 25s12.5-5.6 12.5-12.5S19.9 0 13 0ZM8.812 15.963a.94.94 0 0 1-.874.612.752.752 0 0 1-.325-.063 4.585 4.585 0 0 1-2.4-2.075c-1.25-2.25-.476-5.187 1.712-6.55L9.85 6.075a4.532 4.532 0 0 1 3.537-.55c1.2.313 2.213 1.1 2.825 2.2 1.25 2.25.476 5.188-1.712 6.55l-.325.237a.95.95 0 0 1-1.313-.212.95.95 0 0 1 .213-1.313l.388-.274c1.4-.875 1.875-2.688 1.112-4.075a2.678 2.678 0 0 0-1.65-1.3 2.602 2.602 0 0 0-2.075.324L7.9 9.489c-1.35.837-1.825 2.65-1.063 4.05.313.562.813 1 1.413 1.224a.937.937 0 0 1 .563 1.2Zm10.338 1.1-2.925 1.812a4.488 4.488 0 0 1-3.538.538 4.479 4.479 0 0 1-2.812-2.2c-1.25-2.25-.475-5.188 1.713-6.55l.325-.238a.95.95 0 0 1 1.312.212.95.95 0 0 1-.213 1.313l-.387.275c-1.4.875-1.875 2.688-1.113 4.075.363.65.95 1.113 1.65 1.3.7.188 1.438.075 2.075-.325l2.926-1.812c1.35-.838 1.825-2.65 1.062-4.05-.313-.563-.813-1-1.413-1.226a.92.92 0 0 1-.55-1.2.925.925 0 0 1 1.2-.55 4.585 4.585 0 0 1 2.4 2.075c1.238 2.25.476 5.188-1.712 6.55Z"
              fill="currentColor"/>
    </symbol>
    <symbol id="whats-app-icon" viewBox="0 0 26 25">
        <path fill-rule="evenodd" clip-rule="evenodd"
              d="M20.276 17.651c-.301.853-1.498 1.559-2.453 1.765-.654.139-1.507.248-4.38-.942-3.226-1.337-7.705-6.098-7.705-9.266 0-1.613.93-3.491 2.556-3.491.782 0 .955.015 1.212.632.301.728 1.037 2.521 1.124 2.705.361.754-.368 1.195-.896 1.852-.169.197-.36.411-.146.779.212.36.947 1.558 2.027 2.52 1.395 1.242 2.526 1.639 2.931 1.808.302.125.662.095.882-.14.278-.3.624-.8.977-1.293.249-.353.565-.397.896-.272.224.077 3.068 1.398 3.188 1.61.088.153.088.88-.213 1.733ZM13.002 0h-.006C6.105 0 .5 5.607.5 12.5c0 2.733.881 5.27 2.38 7.326l-1.557 4.645 4.803-1.535A12.403 12.403 0 0 0 13.002 25C19.895 25 25.5 19.393 25.5 12.5S19.894 0 13.002 0Z"
              fill="currentColor"/>
    </symbol>
    <symbol id="page-icon" viewBox="0 0 18 23">
        <g clip-path="url(#a)" fill="silver">
            <path d="M4.845 9.169a.73.73 0 0 0-.53.232.819.819 0 0 0-.22.562c0 .21.08.413.22.562a.73.73 0 0 0 .53.232h7.5a.73.73 0 0 0 .53-.232c.141-.15.22-.351.22-.562a.819.819 0 0 0-.22-.562.73.73 0 0 0-.53-.232h-7.5Zm-.75 3.97c0-.21.08-.412.22-.56a.73.73 0 0 1 .53-.233h7.5a.73.73 0 0 1 .53.232c.141.15.22.351.22.562 0 .21-.079.412-.22.561a.73.73 0 0 1-.53.233h-7.5a.73.73 0 0 1-.53-.233.818.818 0 0 1-.22-.561Zm0 3.177c0-.21.08-.412.22-.561a.73.73 0 0 1 .53-.233h3a.73.73 0 0 1 .53.233c.141.149.22.35.22.561 0 .211-.079.413-.22.562a.73.73 0 0 1-.53.233h-3a.73.73 0 0 1-.53-.233.818.818 0 0 1-.22-.562Z"/>
            <path d="M11.25.37H3c-.796 0-1.559.29-2.121.806A2.64 2.64 0 0 0 0 3.12v16.5c0 .73.316 1.429.879 1.945A3.144 3.144 0 0 0 3 22.37h12c.796 0 1.559-.29 2.121-.805A2.64 2.64 0 0 0 18 19.62V6.558L11.25.37Zm0 1.375v2.75c0 .547.237 1.072.659 1.459.422.386.994.604 1.591.604h3V19.62c0 .365-.158.714-.44.972a1.572 1.572 0 0 1-1.06.403H3c-.398 0-.78-.145-1.06-.403a1.32 1.32 0 0 1-.44-.972V3.12c0-.365.158-.714.44-.972A1.572 1.572 0 0 1 3 1.745h8.25Z"/>
        </g>
        <defs>
            <clipPath id="a">
                <path fill="#fff" transform="translate(0 .37)" d="M0 0h18v22H0z"/>
            </clipPath>
        </defs>
    </symbol>
    <symbol id="open-all-icon" viewBox="0 0 19 15">
        <path stroke="currentColor" stroke-width="2" d="M3.03.993h15M8.03 5.007h10M3.03 8.989h15M8.03 13.035h10"/>
        <circle cx=".996" cy=".996" r=".996" fill="currentColor"/>
        <circle cx="5.992" cy="5.011" r=".996" fill="currentColor"/>
        <circle cx=".996" cy="8.993" r=".996" fill="currentColor"/>
        <circle cx="6.021" cy="13.039" r=".996" fill="currentColor"/>
    </symbol>
    <symbol id="close-all-icon" viewBox="0 0 19 15">
        <path stroke="currentColor" stroke-width="2" d="M3.03 1.028h15M3.03 5.042h15M3.03 9.024h15M3.03 13.07h15"/>
        <circle cx=".996" cy="1.031" r=".996" fill="currentColor"/>
        <circle cx=".996" cy="5.03" r=".996" fill="currentColor"/>
        <circle cx=".996" cy="9.028" r=".996" fill="currentColor"/>
        <circle cx=".996" cy="13.025" r=".996" fill="currentColor"/>
    </symbol>
    <symbol id="sub-icon" viewBox="0 0 25 22">
        <path d="M2.643 1.185c-.701 0-1.373.258-1.869.719A2.37 2.37 0 0 0 0 3.639v9.832c.003.649.283 1.27.779 1.728a2.75 2.75 0 0 0 1.864.714h7.266a.688.688 0 0 0 .468-.18.593.593 0 0 0 .193-.434.593.593 0 0 0-.193-.433.687.687 0 0 0-.468-.18H2.643c-.291 0-.574-.09-.805-.254a1.226 1.226 0 0 1-.472-.656l7.452-4.26 1.752.976 9.249-5.155v3.826c0 .162.07.318.193.434.124.115.292.18.468.18a.687.687 0 0 0 .467-.18.592.592 0 0 0 .193-.434V3.639a2.37 2.37 0 0 0-.774-1.735 2.748 2.748 0 0 0-1.868-.72H2.643Zm4.899 7.62-6.22 3.555V5.337l6.22 3.467Zm-6.22-4.9V3.64c0-.325.138-.637.386-.868.248-.23.584-.359.935-.359h15.855c.35 0 .686.13.934.36.248.23.387.542.387.867v.267L10.57 9.06 1.321 3.906Z"
              fill="currentColor"/>
        <path d="M23.13 15.582a6.033 6.033 0 1 1-12.065 0 6.033 6.033 0 0 1 12.066 0Zm-6.032-3.448a.862.862 0 0 0-.862.862v1.724h-1.723a.862.862 0 1 0 0 1.723h1.723v1.724a.862.862 0 1 0 1.724 0v-1.724h1.723a.862.862 0 1 0 0-1.723H17.96v-1.724a.862.862 0 0 0-.862-.862Z"
              fill="currentColor"/>
    </symbol>
    <symbol id="active-sub-icon" viewBox="0 0 25 22">
        <path d="M2.643 1.413c-.701 0-1.373.259-1.869.72A2.37 2.37 0 0 0 0 3.867v9.831c.003.65.283 1.27.779 1.728a2.75 2.75 0 0 0 1.864.715h7.266a.687.687 0 0 0 .468-.18.593.593 0 0 0 .193-.434.593.593 0 0 0-.193-.434.687.687 0 0 0-.468-.18H2.643c-.291 0-.574-.089-.805-.253a1.226 1.226 0 0 1-.472-.656l7.452-4.26 1.752.975 9.249-5.155v3.826c0 .163.07.319.193.434.124.115.292.18.468.18a.687.687 0 0 0 .467-.18.592.592 0 0 0 .193-.434V3.868a2.37 2.37 0 0 0-.774-1.736 2.748 2.748 0 0 0-1.868-.719H2.643Zm4.899 7.62-6.22 3.555V5.565l6.22 3.468Zm-6.22-4.899v-.266c0-.326.138-.638.386-.868.248-.23.584-.36.935-.36h15.855c.35 0 .686.13.934.36.248.23.387.542.387.868v.266L10.57 9.29 1.321 4.134Z"
              fill="#666"/>
        <path d="M24.257 7.854a.917.917 0 0 1 1.311 0 .946.946 0 0 1 .013 1.315l-7.405 8.754a.918.918 0 0 1-1.334.025l-4.506-4.566a.948.948 0 0 1 .3-1.532.917.917 0 0 1 1.012.204l3.822 3.874 6.762-8.047a.31.31 0 0 1 .025-.027Z"
              fill="#F86401"/>
    </symbol>
    <symbol id="unsub-icon" viewBox="0 0 25 22">
        <path d="M2.643 1.527c-.701 0-1.373.259-1.869.72A2.37 2.37 0 0 0 0 3.981v9.831a2.37 2.37 0 0 0 .779 1.728 2.75 2.75 0 0 0 1.864.715h7.266a.687.687 0 0 0 .468-.18.593.593 0 0 0 .193-.434.593.593 0 0 0-.193-.434.687.687 0 0 0-.468-.18H2.643c-.291 0-.574-.088-.805-.253a1.227 1.227 0 0 1-.472-.656l7.452-4.26 1.752.976 9.249-5.155v3.825c0 .163.07.32.193.434.124.115.292.18.468.18a.687.687 0 0 0 .467-.18.592.592 0 0 0 .193-.434V3.982a2.37 2.37 0 0 0-.774-1.736 2.748 2.748 0 0 0-1.868-.719H2.643Zm4.899 7.62-6.22 3.556V5.68l6.22 3.467Zm-6.22-4.899v-.266c0-.325.138-.638.386-.868.248-.23.584-.36.935-.36h15.855c.35 0 .686.13.934.36.248.23.387.543.387.868v.266L10.57 9.403 1.321 4.248Z"
              fill="#F86401"/>
        <path d="M22.742 15.658a5.751 5.751 0 1 1-11.502 0 5.751 5.751 0 0 1 11.502 0Zm-9.036 0a.821.821 0 0 0 .821.822h4.93a.821.821 0 0 0 0-1.644h-4.93a.822.822 0 0 0-.821.822Z"
              fill="#F86401"/>
    </symbol>
    <symbol id="main-logo" viewBox="0 0 910 252">
        <g fill="#666" style="fill: var(--main-logo-secondary)">
            <path d="M41.393 146.249c-1.267 0-2.317-.35-3.15-1.05-.834-.7-1.25-1.65-1.25-2.85v-70.3c0-1.133.366-2.065 1.1-2.8.733-.733 1.666-1.1 2.8-1.1h42.6c1 0 1.85.35 2.55 1.05.7.7 1.05 1.617 1.05 2.75 0 1.134-.35 2.034-1.05 2.7-.7.667-1.55 1-2.55 1h-38.7v24.5h24.7c4.666 0 8.815.984 12.45 2.95 3.633 1.967 6.482 4.667 8.55 8.1 2.065 3.434 3.1 7.384 3.1 11.85 0 4.535-1.035 8.55-3.1 12.05-2.067 3.5-4.917 6.234-8.55 8.2-3.635 1.967-7.785 2.95-12.45 2.95h-28.1zm3.4-7.5h24.7c3.2 0 6.033-.666 8.5-2 2.466-1.333 4.4-3.2 5.8-5.6 1.4-2.4 2.1-5.2 2.1-8.4s-.7-5.983-2.1-8.35c-1.4-2.366-3.334-4.183-5.8-5.45-2.467-1.266-5.3-1.9-8.5-1.9h-24.7v31.7zM104.892 146.249c-1.534 0-2.65-.633-3.35-1.9-.7-1.266-.75-2.5-.15-3.7l29.4-69.8c.732-1.8 1.965-2.7 3.7-2.7 1.8 0 3.066.9 3.8 2.7l29.5 69.9c.6 1.267.533 2.5-.2 3.7-.734 1.2-1.834 1.8-3.3 1.8-.8 0-1.518-.2-2.15-.6-.634-.4-1.117-1-1.45-1.8l-27.6-66.7h3.2l-27.8 66.7c-.334.8-.817 1.4-1.45 1.8-.634.399-1.35.6-2.15.6zM213.792 147.249c-5.8 0-11.134-1-16-3-4.867-2-9.084-4.8-12.65-8.4-3.567-3.6-6.334-7.833-8.3-12.7-1.967-4.866-2.95-10.2-2.95-16 0-5.733.982-11.033 2.95-15.9 1.966-4.866 4.733-9.1 8.3-12.7 3.565-3.6 7.783-6.4 12.65-8.4 4.866-2 10.2-3 16-3 5.733 0 11.033 1 15.9 3 4.866 2 9.1 4.8 12.7 8.4 3.6 3.6 6.383 7.834 8.35 12.7 1.966 4.867 2.95 10.167 2.95 15.9 0 5.8-.984 11.134-2.95 16-1.967 4.867-4.75 9.1-8.35 12.7-3.6 3.6-7.834 6.4-12.7 8.4-4.867 2-10.167 3-15.9 3zm0-7.4c4.6 0 8.866-.816 12.8-2.45 3.933-1.633 7.35-3.933 10.25-6.9 2.9-2.966 5.15-6.433 6.75-10.4 1.6-3.966 2.4-8.283 2.4-12.95 0-4.6-.8-8.883-2.4-12.85-1.6-3.965-3.85-7.433-6.75-10.4-2.9-2.965-6.317-5.266-10.25-6.9-3.934-1.633-8.2-2.45-12.8-2.45-4.667 0-8.967.817-12.9 2.45-3.935 1.634-7.35 3.935-10.25 6.9-2.9 2.967-5.15 6.435-6.75 10.4-1.6 3.967-2.4 8.25-2.4 12.85 0 4.667.8 8.984 2.4 12.95 1.6 3.967 3.85 7.434 6.75 10.4 2.9 2.967 6.315 5.267 10.25 6.9 3.933 1.634 8.233 2.45 12.9 2.45zM273.691 146.249c-1.067 0-1.984-.383-2.75-1.15-.767-.766-1.15-1.683-1.15-2.75v-70.3c0-1.133.366-2.065 1.1-2.8.733-.733 1.666-1.1 2.8-1.1h41.9c1.066 0 1.983.35 2.75 1.05.766.7 1.15 1.617 1.15 2.75 0 1-.385 1.867-1.15 2.6-.767.734-1.684 1.1-2.75 1.1h-38v66.7c0 1.067-.384 1.984-1.15 2.75-.767.767-1.684 1.15-2.75 1.15z"/>
        </g>
        <g fill="#666" style="fill: var(--main-logo-secondary)">
            <path d="M505.439 135.197c-5.267 0-10.15-.766-14.65-2.3-4.5-1.533-8.4-3.666-11.7-6.4-3.3-2.733-5.85-5.983-7.65-9.75-1.8-3.766-2.7-7.85-2.7-12.25s.9-8.465 2.7-12.2c1.8-3.733 4.35-6.966 7.65-9.7 3.3-2.733 7.2-4.866 11.7-6.4 4.5-1.533 9.383-2.3 14.65-2.3 5.4 0 10.366.768 14.9 2.3 4.533 1.534 8.483 3.667 11.85 6.4 3.366 2.734 5.966 5.967 7.801 9.7 1.832 3.734 2.75 7.8 2.75 12.2s-.918 8.484-2.75 12.25c-1.835 3.767-4.435 7.017-7.801 9.75-3.367 2.734-7.317 4.867-11.85 6.4-4.534 1.535-9.5 2.3-14.9 2.3zm0-7c5.666 0 10.733-1.016 15.2-3.05 4.465-2.033 8-4.833 10.6-8.4 2.6-3.565 3.9-7.65 3.9-12.25s-1.3-8.666-3.9-12.2c-2.6-3.533-6.135-6.316-10.6-8.35-4.467-2.033-9.535-3.05-15.2-3.05-5.534 0-10.5 1.018-14.9 3.05-4.4 2.034-7.867 4.817-10.4 8.35-2.535 3.534-3.8 7.6-3.8 12.2s1.266 8.685 3.8 12.25c2.533 3.567 6 6.367 10.4 8.4 4.4 2.035 9.366 3.05 14.9 3.05zm-.199 15.4c-1.135 0-2.067-.366-2.8-1.1-.734-.733-1.1-1.666-1.1-2.8v-6.8l.3-3.3v-50.7l-.3-2.7v-6.8c0-1.133.366-2.065 1.1-2.8.733-.733 1.666-1.1 2.8-1.1 1.133 0 2.065.367 2.8 1.1.733.734 1.1 1.667 1.1 2.8v6.7l-.3 2.7v51.2l.3 2.6v7.1c0 1.134-.367 2.067-1.1 2.8-.735.734-1.667 1.1-2.8 1.1zM592.939 144.597c-5.8 0-11.134-1-16-3-4.867-2-9.084-4.8-12.649-8.4-3.567-3.6-6.335-7.833-8.3-12.7-1.968-4.866-2.95-10.2-2.95-16 0-5.733.982-11.033 2.95-15.9 1.965-4.866 4.732-9.1 8.3-12.7 3.565-3.6 7.782-6.4 12.649-8.4 4.866-2 10.2-3 16-3 5.733 0 11.033 1 15.9 3 4.865 2 9.1 4.8 12.7 8.4 3.6 3.6 6.383 7.834 8.35 12.7 1.966 4.867 2.95 10.167 2.95 15.9 0 5.8-.984 11.134-2.95 16-1.967 4.867-4.75 9.1-8.35 12.7-3.601 3.6-7.835 6.4-12.7 8.4-4.866 2-10.166 3-15.9 3zm0-7.4c4.601 0 8.866-.816 12.801-2.45 3.933-1.633 7.35-3.933 10.25-6.9 2.899-2.966 5.149-6.433 6.75-10.4 1.6-3.966 2.399-8.283 2.399-12.95 0-4.6-.8-8.883-2.399-12.85-1.601-3.965-3.851-7.433-6.75-10.4-2.9-2.965-6.317-5.266-10.25-6.9-3.935-1.633-8.2-2.45-12.801-2.45-4.667 0-8.967.817-12.899 2.45-3.935 1.634-7.351 3.935-10.25 6.9-2.9 2.967-5.15 6.435-6.75 10.4-1.601 3.967-2.4 8.25-2.4 12.85 0 4.667.8 8.984 2.4 12.95 1.6 3.967 3.85 7.434 6.75 10.4 2.899 2.967 6.315 5.267 10.25 6.9 3.933 1.634 8.232 2.45 12.899 2.45zM652.839 143.597c-1.134 0-2.067-.366-2.8-1.1-.734-.733-1.1-1.666-1.1-2.8v-70.3c0-1.133.365-2.065 1.1-2.8.732-.733 1.666-1.1 2.8-1.1h20c4.933 0 9.3 1.084 13.101 3.25 3.799 2.167 6.766 5.15 8.899 8.95 2.133 3.8 3.2 8.2 3.2 13.2 0 4.867-1.067 9.185-3.2 12.95-2.134 3.767-5.101 6.734-8.899 8.9-3.801 2.167-8.168 3.25-13.101 3.25h-16.101v23.7c0 1.134-.367 2.067-1.1 2.8-.734.734-1.666 1.1-2.799 1.1zm3.899-35.1h16.101c3.399 0 6.433-.75 9.101-2.25a16.102 16.102 0 0 0 6.25-6.25c1.5-2.666 2.25-5.7 2.25-9.1 0-3.533-.75-6.633-2.25-9.3-1.5-2.666-3.585-4.766-6.25-6.3-2.668-1.533-5.701-2.3-9.101-2.3h-16.101v35.5zM734.039 127.797l-33.4-56.5c-1.266-2.2-.766-3.9 1.5-5.1 2.133-1.266 3.833-.8 5.1 1.4l32.101 56.3-5.301 3.9zm-14.801 16.6c-3.066 0-6.034-1-8.899-3-1-.666-1.567-1.482-1.7-2.45-.135-.966.166-1.883.9-2.75.665-.933 1.482-1.45 2.449-1.55.966-.1 1.95.185 2.95.85.733.467 1.45.817 2.15 1.05.7.234 1.482.35 2.35.35 2 0 4.033-.9 6.101-2.7 2.065-1.8 3.865-4.366 5.399-7.7l27.601-58.6c1.065-2.266 2.732-2.9 5-1.9 2.199 1 2.766 2.634 1.699 4.9l-27.6 58.7c-2.2 4.734-4.9 8.384-8.1 10.95-3.199 2.567-6.634 3.85-10.3 3.85zM784.238 143.597c-1.066 0-1.984-.383-2.75-1.15-.768-.766-1.15-1.683-1.15-2.75v-70.3c0-1.133.383-2.065 1.15-2.8a3.84 3.84 0 0 1 2.75-1.1c1.6 0 2.766.667 3.5 2l33.7 67h-3.399l33.1-67c.8-1.333 1.965-2 3.5-2 1.065 0 1.965.367 2.699 1.1.733.734 1.101 1.667 1.101 2.8v70.3c0 1.067-.367 1.984-1.101 2.75-.734.767-1.634 1.15-2.699 1.15-1.135 0-2.084-.383-2.85-1.15-.768-.766-1.15-1.683-1.15-2.75v-60.2l1.699.1-29.5 60.3c-.734 1.268-1.867 1.9-3.399 1.9-1.667 0-2.867-.8-3.601-2.4l-29.699-59.4 2-.5v60.2c0 1.067-.385 1.984-1.15 2.75-.768.767-1.684 1.15-2.751 1.15z"/>
        </g>
        <path fill="#666" style="fill: var(--main-logo-secondary)"
              d="M393.84 168.743c-33.227 0-60.259-27.032-60.259-60.26 0-33.227 27.032-60.259 60.259-60.259 33.228 0 60.26 27.032 60.26 60.259 0 33.227-27.033 60.26-60.26 60.26zm0-113.519c-29.367 0-53.259 23.892-53.259 53.259 0 29.368 23.892 53.26 53.259 53.26 29.368 0 53.26-23.892 53.26-53.26 0-29.367-23.892-53.259-53.26-53.259z"/>
        <g fill="#666" style="fill: var(--main-logo-secondary)">
            <path d="M49.687 188.997c.646 0 1.104.127 1.377.382.271.255.408.706.408 1.352v2.601h2.652c4.454 0 7.862 1.14 10.226 3.417 2.362 2.278 3.544 5.457 3.544 9.537v3.927c0 4.08-1.182 7.26-3.544 9.537-2.364 2.278-5.772 3.417-10.226 3.417h-2.652v2.601c0 .646-.136 1.096-.408 1.352-.272.255-.731.382-1.377.382H46.78c-.646 0-1.096-.127-1.352-.382-.255-.255-.382-.706-.382-1.352v-2.601h-2.652c-4.455 0-7.863-1.139-10.226-3.417-2.364-2.277-3.544-5.457-3.544-9.537v-3.927c0-4.08 1.181-7.259 3.544-9.537 2.363-2.277 5.771-3.417 10.226-3.417h2.652v-2.601c0-.646.127-1.097.382-1.352.255-.255.706-.382 1.352-.382h2.907zm-7.293 10.098c-4.896 0-7.344 2.313-7.344 6.936v4.437c0 4.625 2.448 6.936 7.344 6.936h2.652v-18.309h-2.652zm19.073 6.936c0-4.624-2.448-6.936-7.344-6.936h-2.652v18.309h2.652c4.896 0 7.344-2.312 7.344-6.936v-4.437zM99.258 190.272c1.054 0 1.343.579.867 1.734l-15.198 32.946c-.272.646-.586 1.063-.943 1.25-.357.187-.995.28-1.913.28h-3.468c-1.156 0-1.446-.578-.867-1.734l4.437-8.874-12.342-23.868c-.612-1.155-.324-1.734.867-1.734h3.009c.816 0 1.377.018 1.683.051.306.035.604.162.893.383.289.221.552.586.791 1.096l8.415 16.932 7.701-16.932c.306-.714.628-1.147.969-1.3.34-.153 1.054-.229 2.142-.229h2.957zM131.184 190.272c.646 0 1.104.127 1.377.382.271.255.408.706.408 1.352v32.742c0 .646-.136 1.096-.408 1.352-.272.255-.731.382-1.377.382h-2.907c-.646 0-1.096-.127-1.352-.382-.255-.255-.382-.706-.382-1.352v-13.617h-15.096v13.617c0 .646-.127 1.096-.382 1.352-.255.255-.706.382-1.352.382h-2.907c-.646 0-1.105-.127-1.377-.382s-.408-.706-.408-1.352v-32.742c0-.646.135-1.096.408-1.352.272-.255.731-.382 1.377-.382h2.907c.646 0 1.097.127 1.352.382.255.255.382.706.382 1.352v13.158h15.096v-13.158c0-.646.127-1.096.382-1.352.255-.255.706-.382 1.352-.382h2.907zM167.904 190.272c.646 0 1.104.127 1.377.382.271.255.408.706.408 1.352v28.509h2.652c.646 0 1.096.127 1.352.382.255.255.382.706.382 1.352v10.302c0 .646-.127 1.097-.382 1.352-.255.255-.706.383-1.352.383h-2.805c-.646 0-1.096-.128-1.352-.383-.255-.255-.382-.706-.382-1.352v-6.069h-23.307v6.069c0 .646-.127 1.097-.382 1.352s-.706.383-1.352.383h-2.754c-.646 0-1.097-.128-1.352-.383s-.382-.706-.382-1.352v-10.302c0-.646.127-1.097.382-1.352s.705-.382 1.352-.382h1.173a6.968 6.968 0 0 0 1.683-1.632c.476-.646.96-1.614 1.454-2.907.492-1.292.875-3.068 1.147-5.33.271-2.261.408-4.955.408-8.083v-10.557c0-.646.127-1.096.383-1.352.255-.255.705-.382 1.351-.382h20.298zm-15.862 5.967v6.273c0 8.433-1.139 14.433-3.417 18.003h14.637v-24.276h-11.22zM208.806 224.799c.408 1.122.017 1.683-1.173 1.683h-2.652c-1.054 0-1.793-.102-2.218-.306-.426-.204-.74-.612-.944-1.224l-2.346-6.579h-14.076L183 224.952c-.204.612-.519 1.02-.943 1.224-.426.204-1.165.306-2.219.306h-2.346c-1.19 0-1.581-.561-1.173-1.683l12.75-33.15c.238-.578.501-.96.791-1.147.289-.187.74-.281 1.352-.281h2.703c.612 0 1.071.094 1.377.281.306.187.561.553.765 1.097l12.749 33.2zm-14.994-22.44a23.756 23.756 0 0 1-.765-2.933c-.204-1.037-.34-1.844-.408-2.422l-.051-.867h-.357c0 1.938-.375 3.996-1.122 6.171l-3.927 10.812h10.506l-3.876-10.761zM246.239 190.272c.646 0 1.096.127 1.352.382.255.255.382.706.382 1.352v32.742c0 .646-.127 1.096-.382 1.352-.255.255-.706.382-1.352.382h-2.601c-.646 0-1.097-.127-1.352-.382-.255-.255-.382-.706-.382-1.352v-15.555c0-3.06.408-6.443 1.224-10.149h-.357c-.986 2.958-2.38 6.069-4.182 9.333l-4.998 8.823c-.51.816-1.173 1.224-1.989 1.224h-1.632c-.544 0-.943-.076-1.199-.229-.255-.153-.519-.484-.791-.995l-5.1-8.874c-1.564-2.652-2.874-5.746-3.927-9.282h-.357c.714 3.468 1.071 6.868 1.071 10.2v15.504c0 .646-.127 1.096-.382 1.352-.255.255-.706.382-1.352.382h-2.448c-.646 0-1.105-.127-1.377-.382s-.408-.706-.408-1.352v-32.742c0-.646.135-1.096.408-1.352.272-.255.731-.382 1.377-.382h2.244c.714 0 1.232.085 1.556.255.323.17.62.528.893 1.071l10.608 18.972 10.608-18.921c.306-.578.604-.952.893-1.122.289-.169.773-.255 1.454-.255h2.498zM277.909 190.272c.646 0 1.104.127 1.377.382.271.255.408.706.408 1.352v2.499c0 .646-.136 1.097-.408 1.352-.273.255-.732.382-1.377.382h-15.606v8.925h13.209c.646 0 1.097.127 1.352.382.255.255.383.706.383 1.352v2.499c0 .646-.127 1.097-.383 1.352-.255.255-.706.382-1.352.382h-13.209v9.384h16.167c.646 0 1.097.127 1.352.382s.383.706.383 1.352v2.499c0 .646-.128 1.096-.383 1.352-.255.255-.706.382-1.352.382h-20.808c-.646 0-1.105-.127-1.377-.382s-.408-.706-.408-1.352v-32.742c0-.646.135-1.096.408-1.352.272-.255.731-.382 1.377-.382h20.247zM312.385 190.272c.646 0 1.104.127 1.377.382.271.255.408.706.408 1.352v32.742c0 .646-.136 1.096-.408 1.352-.272.255-.731.382-1.377.382h-2.907c-.646 0-1.096-.127-1.352-.382-.255-.255-.382-.706-.382-1.352v-13.617h-15.096v13.617c0 .646-.127 1.096-.382 1.352-.255.255-.706.382-1.352.382h-2.907c-.646 0-1.105-.127-1.377-.382s-.408-.706-.408-1.352v-32.742c0-.646.135-1.096.408-1.352.272-.255.731-.382 1.377-.382h2.907c.646 0 1.097.127 1.352.382.255.255.382.706.382 1.352v13.158h15.096v-13.158c0-.646.127-1.096.382-1.352.255-.255.706-.382 1.352-.382h2.907zM344.922 190.272c.646 0 1.097.127 1.352.382.255.255.382.706.382 1.352v2.499c0 .646-.127 1.097-.382 1.352s-.706.382-1.352.382h-8.772v28.509c0 .646-.127 1.096-.382 1.352-.255.255-.706.382-1.352.382h-2.958c-.646 0-1.097-.127-1.352-.382-.255-.255-.382-.706-.382-1.352v-28.509h-8.772c-.646 0-1.097-.127-1.352-.382-.255-.255-.383-.705-.383-1.352v-2.499c0-.646.127-1.096.383-1.352.255-.255.705-.382 1.352-.382h23.97zM377.308 224.799c.408 1.122.017 1.683-1.173 1.683h-2.652c-1.054 0-1.793-.102-2.218-.306-.426-.204-.74-.612-.944-1.224l-2.346-6.579h-14.076l-2.397 6.579c-.204.612-.519 1.02-.943 1.224-.426.204-1.165.306-2.219.306h-2.346c-1.19 0-1.581-.561-1.173-1.683l12.75-33.15c.238-.578.501-.96.791-1.147.289-.187.74-.281 1.352-.281h2.703c.612 0 1.071.094 1.377.281.306.187.561.553.765 1.097l12.749 33.2zm-14.994-22.44a23.756 23.756 0 0 1-.765-2.933c-.204-1.037-.34-1.844-.408-2.422l-.051-.867h-.357c0 1.938-.375 3.996-1.122 6.171l-3.927 10.812h10.506l-3.876-10.761zM407.856 190.272c.646 0 1.097.127 1.352.382.255.255.382.706.382 1.352v32.742c0 .646-.127 1.096-.382 1.352-.255.255-.706.382-1.352.382h-2.958c-.646 0-1.096-.127-1.352-.382-.255-.255-.382-.706-.382-1.352v-28.509h-10.812v6.63c0 3.502-.187 6.579-.561 9.231-.375 2.652-.833 4.777-1.377 6.375-.544 1.598-1.275 2.992-2.193 4.182-.918 1.191-1.777 2.058-2.576 2.601-.799.544-1.777 1.105-2.933 1.683-.578.272-1.045.348-1.402.229-.357-.12-.655-.468-.893-1.045l-1.326-2.55c-.51-1.053-.238-1.836.816-2.346.714-.339 1.283-.663 1.708-.969.425-.306.96-.892 1.606-1.759.646-.867 1.147-1.895 1.504-3.085s.671-2.864.943-5.023c.272-2.159.408-4.667.408-7.522v-10.863c0-.646.135-1.096.408-1.352.271-.255.73-.382 1.377-.382h19.995zM419.229 226.482c-.646 0-1.105-.127-1.377-.382s-.408-.706-.408-1.352v-32.742c0-.646.135-1.096.408-1.352.272-.255.731-.382 1.377-.382h2.907c.646 0 1.097.127 1.352.382.255.255.382.706.382 1.352v10.863h8.874c3.706 0 6.638 1.045 8.798 3.136 2.159 2.091 3.238 4.973 3.238 8.645s-1.08 6.563-3.238 8.67c-2.16 2.108-5.092 3.162-8.798 3.162h-13.515zm4.641-17.646v11.679h8.262c1.87 0 3.323-.518 4.36-1.556 1.037-1.037 1.556-2.474 1.556-4.31s-.519-3.264-1.556-4.284c-1.038-1.02-2.491-1.53-4.36-1.53h-8.262zM476.654 190.272c.646 0 1.104.127 1.377.382.271.255.408.706.408 1.352v32.742c0 .646-.136 1.096-.408 1.352-.272.255-.731.382-1.377.382h-2.907c-.646 0-1.096-.127-1.352-.382-.255-.255-.382-.706-.382-1.352v-13.617h-15.096v13.617c0 .646-.127 1.096-.382 1.352-.255.255-.706.382-1.352.382h-2.907c-.646 0-1.105-.127-1.377-.382s-.408-.706-.408-1.352v-32.742c0-.646.135-1.096.408-1.352.272-.255.731-.382 1.377-.382h2.907c.646 0 1.097.127 1.352.382.255.255.382.706.382 1.352v13.158h15.096v-13.158c0-.646.127-1.096.382-1.352.255-.255.706-.382 1.352-.382h2.907zM515.771 224.799c.408 1.122.017 1.683-1.173 1.683h-2.652c-1.054 0-1.793-.102-2.218-.306-.426-.204-.74-.612-.944-1.224l-2.346-6.579h-14.076l-2.397 6.579c-.204.612-.519 1.02-.943 1.224-.426.204-1.165.306-2.219.306h-2.346c-1.19 0-1.581-.561-1.173-1.683l12.75-33.15c.238-.578.501-.96.791-1.147.289-.187.74-.281 1.352-.281h2.703c.612 0 1.071.094 1.377.281.306.187.561.553.765 1.097l12.749 33.2zm-14.995-22.44a23.756 23.756 0 0 1-.765-2.933c-.204-1.037-.34-1.844-.408-2.422l-.051-.867h-.357c0 1.938-.375 3.996-1.122 6.171l-3.927 10.812h10.506l-3.876-10.761zM519.442 201.492c0-3.501 1.011-6.247 3.035-8.236 2.022-1.989 4.819-2.983 8.39-2.983h14.127c.646 0 1.097.127 1.351.382.256.255.383.706.383 1.352v32.742c0 .646-.127 1.096-.383 1.352-.254.255-.705.382-1.351.382h-2.958c-.646 0-1.097-.127-1.352-.382-.255-.255-.383-.706-.383-1.352v-12.036h-3.927c-1.769 0-3.06.238-3.876.714-.816.477-1.547 1.428-2.193 2.856l-3.876 8.67c-.273.646-.638 1.063-1.097 1.25-.459.187-1.25.28-2.372.28h-2.958c-1.122 0-1.411-.578-.867-1.734l5.202-10.761c.476-.986 1.002-1.734 1.581-2.244-4.317-1.531-6.476-4.948-6.476-10.252zm12.036-5.253c-1.734 0-3.06.451-3.978 1.352-.918.901-1.377 2.202-1.377 3.901 0 1.701.467 3.001 1.402 3.902.935.901 2.252 1.352 3.953 1.352h8.823V196.24h-8.823zM596.042 224.799c.408 1.122.017 1.683-1.173 1.683h-2.652c-1.054 0-1.794-.102-2.219-.306-.425-.204-.739-.612-.943-1.224l-2.346-6.579h-14.076l-2.396 6.579c-.204.612-.52 1.02-.944 1.224-.425.204-1.165.306-2.218.306h-2.347c-1.19 0-1.581-.561-1.173-1.683l12.75-33.15c.237-.578.502-.96.791-1.147.288-.187.739-.281 1.352-.281h2.703c.611 0 1.07.094 1.377.281.306.187.561.553.765 1.097l12.749 33.2zm-14.994-22.44a23.756 23.756 0 0 1-.765-2.933c-.204-1.037-.341-1.844-.408-2.422l-.051-.867h-.357c0 1.938-.374 3.996-1.122 6.171l-3.927 10.812h10.506l-3.876-10.761zM627.101 190.272c.646 0 1.104.127 1.377.382.272.255.408.706.408 1.352v32.742c0 .646-.136 1.096-.408 1.352-.272.255-.731.382-1.377.382h-2.906c-.646 0-1.097-.127-1.352-.382-.255-.255-.383-.706-.383-1.352v-13.617h-15.096v13.617c0 .646-.128 1.096-.383 1.352-.255.255-.706.382-1.352.382h-2.907c-.646 0-1.104-.127-1.377-.382-.272-.255-.408-.706-.408-1.352v-32.742c0-.646.136-1.096.408-1.352.272-.255.731-.382 1.377-.382h2.907c.646 0 1.097.127 1.352.382.255.255.383.706.383 1.352v13.158h15.096v-13.158c0-.646.128-1.096.383-1.352.255-.255.705-.382 1.352-.382h2.906zM666.218 224.799c.408 1.122.017 1.683-1.173 1.683h-2.652c-1.054 0-1.794-.102-2.219-.306-.425-.204-.739-.612-.943-1.224l-2.346-6.579h-14.076l-2.396 6.579c-.204.612-.52 1.02-.944 1.224-.425.204-1.165.306-2.218.306h-2.347c-1.19 0-1.581-.561-1.173-1.683l12.75-33.15c.237-.578.502-.96.791-1.147.288-.187.739-.281 1.352-.281h2.703c.611 0 1.07.094 1.377.281.306.187.561.553.765 1.097l12.749 33.2zm-14.994-22.44a23.756 23.756 0 0 1-.765-2.933c-.204-1.037-.341-1.844-.408-2.422l-.051-.867h-.357c0 1.938-.374 3.996-1.122 6.171l-3.927 10.812H655.1l-3.876-10.761zM696.766 190.272c.646 0 1.097.127 1.352.382.255.255.383.706.383 1.352v32.742c0 .646-.128 1.096-.383 1.352-.255.255-.706.382-1.352.382h-2.958c-.646 0-1.097-.127-1.352-.382-.255-.255-.382-.706-.382-1.352v-28.509h-10.813v6.63c0 3.502-.188 6.579-.561 9.231-.375 2.652-.834 4.777-1.377 6.375-.545 1.598-1.275 2.992-2.193 4.182-.918 1.191-1.777 2.058-2.575 2.601-.8.544-1.777 1.105-2.933 1.683-.579.272-1.046.348-1.402.229-.357-.12-.655-.468-.893-1.045l-1.326-2.55c-.51-1.053-.238-1.836.815-2.346.715-.339 1.283-.663 1.709-.969.425-.306.96-.892 1.606-1.759.646-.867 1.147-1.895 1.505-3.085.356-1.19.671-2.864.943-5.023.271-2.159.407-4.667.407-7.522v-10.863c0-.646.136-1.096.408-1.352.272-.255.731-.382 1.377-.382h19.995zM733.231 190.272c.645 0 1.096.127 1.351.382.256.255.383.706.383 1.352v32.742c0 .646-.127 1.096-.383 1.352-.255.255-.706.382-1.351.382h-2.907c-.646 0-1.097-.127-1.352-.382-.255-.255-.383-.706-.383-1.352v-14.943c0-2.583.076-4.565.229-5.942s.484-3.29.994-5.737h-.203c-1.156 2.958-2.856 6.188-5.101 9.69l-11.679 17.799c-.341.579-.918.867-1.734.867h-2.958c-.646 0-1.104-.127-1.377-.382-.272-.255-.408-.706-.408-1.352v-32.742c0-.646.136-1.096.408-1.352.272-.255.731-.382 1.377-.382h2.907c.646 0 1.097.127 1.352.382.255.255.383.706.383 1.352v14.79c0 2.584-.077 4.59-.229 6.018-.153 1.428-.484 3.366-.995 5.814h.204c1.258-3.229 3.026-6.596 5.304-10.098l11.476-17.442c.374-.543.935-.816 1.683-.816h3.009zM765.769 190.272c.646 0 1.097.127 1.352.382.255.255.383.706.383 1.352v2.499c0 .646-.128 1.097-.383 1.352s-.706.382-1.352.382h-8.771v28.509c0 .646-.128 1.096-.383 1.352-.255.255-.706.382-1.352.382h-2.958c-.646 0-1.097-.127-1.352-.382-.255-.255-.383-.706-.383-1.352v-28.509h-8.771c-.646 0-1.097-.127-1.352-.382s-.383-.705-.383-1.352v-2.499c0-.646.128-1.096.383-1.352.255-.255.705-.382 1.352-.382h23.97zM799.429 190.272c.645 0 1.096.127 1.351.382.256.255.383.706.383 1.352v32.742c0 .646-.127 1.096-.383 1.352-.255.255-.706.382-1.351.382h-2.907c-.646 0-1.097-.127-1.352-.382-.255-.255-.383-.706-.383-1.352v-14.943c0-2.583.076-4.565.229-5.942s.484-3.29.994-5.737h-.203c-1.156 2.958-2.856 6.188-5.101 9.69l-11.679 17.799c-.341.579-.918.867-1.734.867h-2.958c-.646 0-1.104-.127-1.377-.382-.272-.255-.408-.706-.408-1.352v-32.742c0-.646.136-1.096.408-1.352.272-.255.731-.382 1.377-.382h2.907c.646 0 1.097.127 1.352.382.255.255.383.706.383 1.352v14.79c0 2.584-.077 4.59-.229 6.018-.153 1.428-.484 3.366-.995 5.814h.204c1.258-3.229 3.026-6.596 5.304-10.098l11.476-17.442c.374-.543.935-.816 1.683-.816h3.009zM836.606 224.748c.612 1.156.323 1.734-.866 1.734h-2.958c-1.122 0-1.905-.093-2.347-.28-.442-.187-.815-.604-1.122-1.25l-5.15-10.353c-.714-1.394-1.472-2.337-2.27-2.831-.8-.493-2.065-.74-3.8-.74h-2.601v13.719c0 .646-.128 1.096-.383 1.352-.255.255-.706.382-1.352.382h-2.907c-.646 0-1.104-.127-1.377-.382-.272-.255-.408-.706-.408-1.352v-32.742c0-.646.136-1.096.408-1.352.272-.255.731-.382 1.377-.382h2.907c.646 0 1.097.127 1.352.382.255.255.383.706.383 1.352v13.209H818.195l10.251-13.515c.441-.612.875-1.002 1.3-1.173.425-.169 1.147-.255 2.168-.255h3.264c.578 0 .943.17 1.097.51.153.34.059.732-.28 1.173l-11.373 14.535c2.175.953 4.012 2.891 5.508 5.814l6.476 12.445zM871.338 224.799c.408 1.122.017 1.683-1.173 1.683h-2.652c-1.054 0-1.794-.102-2.219-.306-.425-.204-.739-.612-.943-1.224l-2.346-6.579h-14.076l-2.396 6.579c-.204.612-.52 1.02-.944 1.224-.425.204-1.165.306-2.218.306h-2.347c-1.19 0-1.581-.561-1.173-1.683l12.75-33.15c.237-.578.502-.96.791-1.147.288-.187.739-.281 1.352-.281h2.703c.611 0 1.07.094 1.377.281.306.187.561.553.765 1.097l12.749 33.2zm-14.994-22.44a23.756 23.756 0 0 1-.765-2.933c-.204-1.037-.341-1.844-.408-2.422l-.051-.867h-.357c0 1.938-.374 3.996-1.122 6.171l-3.927 10.812h10.506l-3.876-10.761z"/>
        </g>
        <g fill="#F86401" style="fill: var(--main-logo-primary)">
            <path d="m419.395 107.247-3.348 1.874 7.362 12.851-23.69-13.654.132-27.171 7.361 12.715 3.48-2.008-15.659-26.768v46.043l39.885 23.023zM384.058 138.033v-4.016H369.2l23.717-13.652 23.532 13.652h-14.858v4.016h31.188l-39.862-23.155-39.913 23.155zM390.614 64.952l-15.526 26.902 3.348 2.008 7.495-12.715v27.171l-23.692 13.654 7.363-12.851-3.347-1.874-15.526 26.905 39.885-23.023z"/>
        </g>
        <path fill="none" d="M66.499 412.149h263.487v83.721H66.499z"/>
        <g fill="#F86401" style="fill: var(--main-logo-primary)">
            <path d="m445.972 425.454-4.144 2.319 9.112 15.908-29.324-16.901.164-33.634 9.112 15.74 4.308-2.486-19.384-33.135v56.994l49.372 28.5zM402.23 463.562v-4.972h-18.391l29.358-16.899 29.128 16.899h-18.391v4.972h38.606l-49.343-28.663-49.406 28.663zM410.346 373.099 391.127 406.4l4.144 2.486 9.278-15.74v33.634l-29.326 16.901 9.113-15.908-4.142-2.319-19.22 33.305 49.372-28.5z"/>
        </g>
        <path fill="#666" d="M874.383 172.894h-847a3.5 3.5 0 1 1 0-7h847a3.5 3.5 0 1 1 0 7z"
              style="fill: var(--main-logo-secondary)"/>
    </symbol>
    <symbol id="search-icon" viewBox="0 0 21 20">
        <path d="m16.392 14.77 4.282 4.282a.556.556 0 1 1-.786.785l-4.282-4.282a8.889 8.889 0 1 1 .786-.786Zm-6.666 1.897a7.778 7.778 0 1 0 0-15.556 7.778 7.778 0 0 0 0 15.556Z"
              fill="currentColor"/>
    </symbol>
    <symbol id="home-icon" viewBox="0 0 31 30">
        <rect x="6.34824" y="11.2181" width="3.96367" height="12.1935" rx="1" fill="currentColor"/>
        <rect x="13.1158" y="11.2181" width="3.96367" height="12.1935" rx="1" fill="currentColor"/>
        <rect x="19.8834" y="11.2181" width="3.96367" height="12.1935" rx="1" fill="currentColor"/>
        <rect x="3.28876" y="25.3076" width="23.7032" height="4.06449" rx="1" fill="currentColor"/>
        <path d="M14.7245 1.16916C15.0181 1.01292 15.3702 1.01292 15.6639 1.16916L26.5905 6.98268C27.51 7.47192 27.1624 8.86551 26.1208 8.86551H15.1942H4.26752C3.22595 8.86551 2.87829 7.47192 3.79781 6.98268L14.7245 1.16916Z"
              fill="currentColor"/>
    </symbol>
    <symbol id="arrow-down-icon" viewBox="0 0 23 10">
        <path d="M1.5 1.22705L11.5 8.77332L21.5 1.22705" fill="none" stroke="currentColor" stroke-width="1.5"
              stroke-linecap="round"/>
    </symbol>
    <symbol id="burger-icon" viewBox="0 0 43 28">
        <path d="M0.476318 2.69476C0.476318 1.44315 1.49095 0.428528 2.74255 0.428528H40.7008C41.9524 0.428528 42.967 1.44315 42.967 2.69476C42.967 3.94637 41.9524 4.96099 40.7008 4.96099H2.74255C1.49094 4.96099 0.476318 3.94637 0.476318 2.69476Z"
              fill="currentColor"/>
        <path d="M0.476318 14.2107C0.476318 12.9591 1.49095 11.9445 2.74255 11.9445H40.7008C41.9524 11.9445 42.967 12.9591 42.967 14.2107C42.967 15.4623 41.9524 16.4769 40.7008 16.4769H2.74255C1.49094 16.4769 0.476318 15.4623 0.476318 14.2107Z"
              fill="currentColor"/>
        <path d="M0.476318 25.7266C0.476318 24.475 1.49095 23.4604 2.74255 23.4604H40.7008C41.9524 23.4604 42.967 24.475 42.967 25.7266C42.967 26.9782 41.9524 27.9929 40.7008 27.9929H2.74255C1.49094 27.9929 0.476318 26.9782 0.476318 25.7266Z"
              fill="currentColor"/>
    </symbol>
    <symbol id="phone-icon" viewBox="0 0 33 35">
        <path d="M30.2503 0.123291H17.8659C16.3498 0.123291 15.1162 1.39439 15.1162 2.95661V10.4319C15.1162 11.6638 15.8824 12.7165 16.9475 13.1028V16.8769C17.078 18.2432 18.3224 17.728 18.5017 17.5544L22.7947 13.2652H30.2504C31.7665 13.2652 33.0001 11.9941 33.0001 10.4319V2.95661C33 1.39431 31.7665 0.123291 30.2503 0.123291ZM31.1688 10.4319C31.1688 10.9526 30.7611 11.3782 30.2504 11.3782H22.4252C22.1861 11.3782 21.9578 11.4734 21.7894 11.647L18.7843 14.6483V12.3246C18.7843 11.8038 18.3767 11.3783 17.866 11.3783C17.3606 11.3783 16.9476 10.9583 16.9476 10.432V2.95661C16.9476 2.43587 17.3552 2.01032 17.866 2.01032H30.2504C30.7558 2.01032 31.1688 2.43033 31.1688 2.95661V10.4319Z"
              fill="currentColor"/>
        <path d="M27.6961 26.9616L23.1585 22.2916C22.6369 21.7541 20.8436 20.6678 19.2677 22.2916L16.9147 24.7162C16.7571 24.8786 16.5017 24.9625 16.1485 24.9625C15.1051 24.9625 13.2466 24.1394 11.4642 22.314C10.3665 21.1828 9.50791 19.867 9.1167 18.7023C8.80694 17.7784 8.8124 17.0281 9.12754 16.7033L11.4805 14.2787C12.551 13.1756 12.551 11.3725 11.4805 10.2695L6.95393 5.58835C6.43225 5.05081 4.67154 3.93094 3.06306 5.58835L1.57411 7.12268C-0.19745 8.94813 -0.485438 12.0166 0.769825 15.7459C1.95448 19.2512 4.36724 23.0084 7.58429 26.3177C12.2522 31.1276 17.7516 34.1233 21.925 34.1233C23.6966 34.1233 25.1801 33.5633 26.2071 32.505L27.6961 30.9708C28.7667 29.8677 28.7667 28.0646 27.6961 26.9616ZM26.3919 29.6325L24.9029 31.1667C24.2128 31.8779 23.2075 32.2362 21.9141 32.2362C18.2624 32.2362 13.1434 29.3917 8.87217 24.9793C5.85081 21.866 3.5902 18.3663 2.49792 15.1298C1.49803 12.1565 1.63387 9.7263 2.86745 8.4552L4.3564 6.92095C4.87807 6.38341 5.48129 6.74174 5.65521 6.92095L10.1873 11.5909C10.546 11.9605 10.546 12.5596 10.1873 12.9292L7.83429 15.3539C6.98108 16.233 6.82893 17.6385 7.38869 19.3071C7.87775 20.7518 8.86133 22.2916 10.171 23.6355C12.0947 25.6177 14.3825 26.8439 16.1485 26.8439C16.9908 26.8439 17.7027 26.5695 18.2081 26.0488L20.5611 23.6242C20.9035 23.2714 21.5121 23.2714 21.8599 23.6242L26.392 28.2942C26.7506 28.6694 26.7506 29.263 26.3919 29.6325Z"
              fill="currentColor"/>
        <path d="M19.9252 7.64337C20.4324 7.64337 20.8435 7.2197 20.8435 6.69708C20.8435 6.17446 20.4324 5.75079 19.9252 5.75079C19.418 5.75079 19.0068 6.17446 19.0068 6.69708C19.0068 7.2197 19.418 7.64337 19.9252 7.64337Z"
              fill="currentColor"/>
        <path d="M24.0551 7.64337C24.5623 7.64337 24.9734 7.2197 24.9734 6.69708C24.9734 6.17446 24.5623 5.75079 24.0551 5.75079C23.5479 5.75079 23.1367 6.17446 23.1367 6.69708C23.1367 7.2197 23.5479 7.64337 24.0551 7.64337Z"
              fill="currentColor"/>
        <path d="M28.1852 7.64337C28.6924 7.64337 29.1036 7.2197 29.1036 6.69708C29.1036 6.17446 28.6924 5.75079 28.1852 5.75079C27.678 5.75079 27.2668 6.17446 27.2668 6.69708C27.2668 7.2197 27.678 7.64337 28.1852 7.64337Z"
              fill="currentColor"/>
    </symbol>
    <symbol id="search-icon-2" viewBox="0 0 32 32">
        <path d="M23.2456 20.5168C25.0611 18.0391 25.8742 14.9672 25.5224 11.9156C25.1705 8.86401 23.6795 6.05784 21.3478 4.05849C19.016 2.05914 16.0154 1.01406 12.9463 1.13234C9.87723 1.25061 6.96595 2.52352 4.79494 4.69639C2.62393 6.86926 1.35329 9.78185 1.23723 12.8515C1.12117 15.9211 2.16824 18.9213 4.16898 21.252C6.16971 23.5826 8.97655 25.0718 12.028 25.4215C15.0794 25.7713 18.1503 24.9559 20.6263 23.1383H20.6245C20.6795 23.2133 20.7407 23.2852 20.8082 23.354L28.0267 30.5735C28.3783 30.9253 28.8552 31.1231 29.3525 31.1233C29.8499 31.1235 30.327 30.926 30.6788 30.5744C31.0306 30.2228 31.2283 29.7458 31.2285 29.2484C31.2287 28.7509 31.0313 28.2738 30.6797 27.922L23.4612 20.7025C23.3942 20.6346 23.3222 20.5737 23.2456 20.5168ZM23.7294 13.3086C23.7294 14.663 23.4626 16.0041 22.9444 17.2554C22.4262 18.5067 21.6666 19.6437 20.709 20.6014C19.7514 21.5591 18.6146 22.3188 17.3635 22.8371C16.1124 23.3554 14.7714 23.6221 13.4172 23.6221C12.063 23.6221 10.7221 23.3554 9.47097 22.8371C8.21984 22.3188 7.08305 21.5591 6.12548 20.6014C5.16791 19.6437 4.40832 18.5067 3.89009 17.2554C3.37186 16.0041 3.10513 14.663 3.10513 13.3086C3.10513 10.5732 4.19158 7.94995 6.12548 6.01578C8.05937 4.08162 10.6823 2.99501 13.4172 2.99501C16.1522 2.99501 18.7751 4.08162 20.709 6.01578C22.6429 7.94995 23.7294 10.5732 23.7294 13.3086Z"
              fill="currentColor" stroke="currentColor"/>
    </symbol>
    <symbol id="best-offer-icon" viewBox="0 0 34 36">
        <path fill-rule="evenodd" clip-rule="evenodd"
              d="M17.065 29.9442V28.3115L17.4461 28.5948L22.2966 32.1444L20.4451 26.4061L20.2981 25.9411L20.6799 25.6688L25.5169 22.1082L19.5336 22.1081H19.0644L18.9178 21.6545L17.065 15.916V11.6524L17.6931 13.5802L19.1082 18.0031L20.0746 15.0203L21.702 20.089L22.4196 17.8329L23.3741 20.7923H27.5271H29.5368L27.9089 21.9942L24.5529 24.4558L25.4614 27.2675L23.5644 25.8726L25.2946 31.2715L22.7906 29.4337L24.1484 33.6756L24.7772 35.6031L23.1499 34.4116L17.065 29.9442ZM17.065 11.6525V15.916L15.2355 21.6545L15.0899 22.1082H14.6067H8.63377L13.4725 25.6689L13.8545 25.9412L13.7097 26.4061L11.8561 32.1445L16.6836 28.5949L17.065 28.3115V29.9443L11.0042 34.4118L9.37621 35.6032L9.99389 33.6757L12.3176 26.451L6.24254 21.9944L4.61609 20.7925H6.6263H14.1358L16.4471 13.5804L17.065 11.6525Z"
              fill="currentColor"/>
        <path fill-rule="evenodd" clip-rule="evenodd"
              d="M13.4897 8.53272H7.60908L17.2116 2.85514L26.8153 8.53272H20.733V10.1808H33.3768L17.0967 0.555634L0.810852 10.1808H13.4897V8.53272Z"
              fill="currentColor"/>
    </symbol>
    <symbol id="star-growth-icon" viewBox="0 0 38 37">
        <path fill-rule="evenodd" clip-rule="evenodd"
              d="M28.3703 32.9525L27.1276 29.1915L30.4543 26.9112L26.3614 26.8846L25.1165 23.1127L25.0856 23.2291V25.5468L25.0944 25.4996L25.7845 27.5983L28.081 27.6087L26.2163 28.9008L26.9068 31.0072L25.0856 29.7027V30.6234L28.3703 32.9525ZM25.0857 23.2291L23.8289 26.8635L19.7333 26.8416L23.0325 29.1692L21.7359 32.9168L25.0712 30.6134L25.0857 30.6234V29.7027L25.0712 29.6922L23.1986 30.9861L23.9274 28.8874L22.0764 27.5719L24.3734 27.5856L25.0857 25.5468V23.2291Z"
              fill="currentColor"/>
        <path fill-rule="evenodd" clip-rule="evenodd"
              d="M15.8438 23.9747L14.6012 20.2136L17.9334 17.9223L13.8412 17.8969L12.5956 14.1353L12.562 14.2409V16.5588L12.5726 16.5214L13.2621 18.6203L15.5569 18.6424L13.6948 19.9235L14.3847 22.0311L12.562 20.7252V21.6467L15.8438 23.9747ZM12.562 14.2409L11.3047 17.8745L7.2121 17.8503L10.5065 20.1926L9.21513 23.9399L12.5502 21.6365L12.5619 21.6468L12.562 20.7252L12.536 20.714L10.6773 22.0087L11.4013 19.9109L9.55538 18.5942L11.8483 18.6203L12.562 16.5588V14.2409Z"
              fill="currentColor"/>
        <path fill-rule="evenodd" clip-rule="evenodd"
              d="M25.4202 16.2451L26.8076 17.5599L11.8246 32.1484L10.4463 30.8322L25.4202 16.2451Z"
              fill="currentColor"/>
        <path fill-rule="evenodd" clip-rule="evenodd"
              d="M15.2782 10.8945H9.70411L18.8071 5.75737L27.9111 10.8945L22.1455 10.8945V12.386H34.1319L18.6984 3.67682L3.25952 12.386H15.2782V10.8945Z"
              fill="currentColor"/>
    </symbol>
    <symbol id="top-deal-icon" viewBox="0 0 30 30">
        <path fill-rule="evenodd" clip-rule="evenodd"
              d="M6.75835 29.3108L5.19305 27.8867L22.2035 12.1146L23.7794 13.5366L6.75835 29.3108Z"
              fill="currentColor"/>
        <path fill-rule="evenodd" clip-rule="evenodd"
              d="M11.8324 7.43967H6.51244L15.2004 2.74792L23.8892 7.43967H18.3863V8.80208H29.8255L15.0966 0.848053L0.362244 8.80208H11.8324V7.43967Z"
              fill="currentColor"/>
        <path fill-rule="evenodd" clip-rule="evenodd"
              d="M9.53719 11.5988C7.25776 11.5988 5.40973 13.304 5.40973 15.4065C5.40973 17.5107 7.2577 19.2158 9.53719 19.2158C11.8166 19.2158 13.6646 17.5107 13.6646 15.4065C13.6647 13.3041 11.8166 11.5988 9.53719 11.5988ZM9.53719 17.7876C8.11293 17.7876 6.95748 16.7219 6.95748 15.406C6.95748 14.0925 8.11293 13.0271 9.53719 13.0271C10.962 13.0271 12.1168 14.0925 12.1168 15.406C12.1169 16.722 10.962 17.7876 9.53719 17.7876Z"
              fill="currentColor"/>
        <path fill-rule="evenodd" clip-rule="evenodd"
              d="M20.4569 21.6938C18.1775 21.6938 16.3293 23.3992 16.3293 25.5018C16.3293 27.6056 18.1775 29.3107 20.4569 29.3107C22.736 29.3107 24.5841 27.6056 24.5841 25.5018C24.5841 23.3992 22.736 21.6938 20.4569 21.6938ZM20.4569 27.8827C19.0325 27.8827 17.8768 26.817 17.8768 25.5011C17.8768 24.1878 19.0325 23.1223 20.4569 23.1223C21.8816 23.1223 23.0365 24.1879 23.0365 25.5011C23.0365 26.8171 21.8816 27.8827 20.4569 27.8827Z"
              fill="currentColor"/>
    </symbol>
    <symbol id="top-rated-icon" viewBox="0 0 31 30">
        <path fill-rule="evenodd" clip-rule="evenodd"
              d="M10.7125 24.3561H7.33454L6.29055 21.1435L5.24675 24.3561H1.86801L4.60146 26.3423L3.55738 29.5553L6.29046 27.5692L9.02325 29.5553L7.97926 26.3423L10.7125 24.3561ZM6.29055 26.6453L4.93649 27.6289L5.45405 26.0373L4.09952 25.0536H5.77384L6.29064 23.4618L6.80839 25.0536H8.4813L7.12724 26.0373L7.64498 27.6289L6.29055 26.6453Z"
              fill="currentColor"/>
        <path fill-rule="evenodd" clip-rule="evenodd"
              d="M28.397 24.3871H25.0185L23.975 21.1745L22.931 24.3871H19.5525L22.2857 26.3734L21.2417 29.5863L23.9749 27.6001L26.7078 29.5863L25.6633 26.3734L28.397 24.3871ZM23.9751 26.6763L22.621 27.6606L23.1381 26.0688L21.7838 25.0845H23.4578L23.9751 23.493L24.4921 25.0845H26.1657L24.8117 26.0688L25.3291 27.6606L23.9751 26.6763Z"
              fill="currentColor"/>
        <path fill-rule="evenodd" clip-rule="evenodd"
              d="M14.1112 14.0401H10.7334L9.68956 10.8275L8.64511 14.0401H5.26712L8.00029 16.0263L6.9563 19.2384L9.68956 17.2522L12.4221 19.2384L11.3781 16.0263L14.1112 14.0401ZM9.68956 16.3292L8.33495 17.3129L8.85222 15.7212L7.4977 14.7368H9.17201L9.68956 13.145L10.2067 14.7368H11.8807L10.5257 15.7212L11.0437 17.3129L9.68956 16.3292Z"
              fill="currentColor"/>
        <path fill-rule="evenodd" clip-rule="evenodd"
              d="M25.0944 14.0226H21.7158L20.6718 10.8103L19.6281 14.0226H16.2494L18.983 16.0088L17.939 19.2219L20.6718 17.2357L23.4047 19.2219L22.3607 16.0088L25.0944 14.0226ZM20.6718 16.3118L19.3178 17.296L19.8349 15.7043L18.4805 14.7199H20.1546L20.6718 13.1282L21.1894 14.7199H22.863L21.5085 15.7043L22.026 17.296L20.6718 16.3118Z"
              fill="currentColor"/>
        <path fill-rule="evenodd" clip-rule="evenodd"
              d="M10.7366 24.3921H14.1153L15.1591 27.605L16.2031 24.3921H19.5814L16.8486 22.4066L17.8923 19.1939L15.1591 21.1801L12.4266 19.1939L13.4704 22.4066L10.7366 24.3921ZM15.159 22.1028L16.5131 21.1195L15.9958 22.711L17.3499 23.6954H15.6765L15.159 25.287L14.6417 23.6954H12.9683L14.3224 22.711L13.8048 21.1195L15.159 22.1028Z"
              fill="currentColor"/>
        <path fill-rule="evenodd" clip-rule="evenodd"
              d="M11.7882 7.81434H6.39576L15.2012 2.66058L24.008 7.81434H18.4309V9.31062H30.0256L15.0958 0.57251L0.162018 9.31062H11.7882V7.81434Z"
              fill="currentColor"/>
    </symbol>
    <symbol id="info-icon" viewBox="0 0 36 33">
        <path d="M7.74251 0.784424C8.03509 0.784424 8.31569 0.889127 8.52258 1.0755C8.72947 1.26187 8.8457 1.51465 8.8457 1.77822V2.77201H26.4967V1.77822C26.4967 1.51465 26.6129 1.26187 26.8198 1.0755C27.0267 0.889127 27.3073 0.784424 27.5999 0.784424C27.8925 0.784424 28.1731 0.889127 28.3799 1.0755C28.5868 1.26187 28.7031 1.51465 28.7031 1.77822V2.77201H30.9094C32.0798 2.77201 33.2022 3.19082 34.0297 3.93631C34.8573 4.6818 35.3222 5.6929 35.3222 6.74718V28.6106C35.3222 29.6649 34.8573 30.676 34.0297 31.4215C33.2022 32.167 32.0798 32.5858 30.9094 32.5858H4.43295C3.26262 32.5858 2.14022 32.167 1.31267 31.4215C0.485116 30.676 0.0202026 29.6649 0.0202026 28.6106V6.74718C0.0202026 5.6929 0.485116 4.6818 1.31267 3.93631C2.14022 3.19082 3.26262 2.77201 4.43295 2.77201H6.63932V1.77822C6.63932 1.51465 6.75555 1.26187 6.96244 1.0755C7.16933 0.889127 7.44993 0.784424 7.74251 0.784424ZM2.22658 8.73477V28.6106C2.22658 29.1378 2.45903 29.6433 2.87281 30.0161C3.28658 30.3888 3.84778 30.5982 4.43295 30.5982H30.9094C31.4946 30.5982 32.0558 30.3888 32.4696 30.0161C32.8833 29.6433 33.1158 29.1378 33.1158 28.6106V8.73477H2.22658Z"
              fill="currentColor"/>
        <path d="M18.1803 23.3357C18.2116 23.406 18.2272 23.4802 18.2272 23.5583C18.2272 23.6365 18.2077 23.7068 18.1686 23.7693C18.1374 23.824 18.0944 23.8787 18.0397 23.9333C17.9928 23.9802 17.9381 24.0271 17.8756 24.074C17.821 24.113 17.7741 24.156 17.735 24.2029C17.7194 24.2341 17.7077 24.281 17.6999 24.3435C17.6999 24.3982 17.6842 24.4412 17.653 24.4724C17.5592 24.574 17.4421 24.6599 17.3014 24.7302C17.1686 24.8005 17.0514 24.8904 16.9499 24.9998C16.8874 25.0701 16.8405 25.1404 16.8092 25.2107C16.778 25.2732 16.7077 25.3474 16.5983 25.4333C16.5124 25.4958 16.4303 25.5818 16.3522 25.6912C16.2741 25.8005 16.1881 25.9099 16.0944 26.0193C16.0006 26.1208 15.8913 26.2107 15.7663 26.2888C15.6413 26.3748 15.4928 26.4177 15.321 26.4177C15.2819 26.4177 15.2467 26.4138 15.2155 26.406C15.1842 26.406 15.1491 26.4021 15.11 26.3943C15.11 26.3943 15.0827 26.3787 15.028 26.3474C14.9733 26.3162 14.9108 26.2537 14.8405 26.1599C14.778 26.0662 14.7194 25.9333 14.6647 25.7615C14.61 25.5896 14.5827 25.363 14.5827 25.0818C14.5827 25.0115 14.5944 24.9373 14.6178 24.8591C14.6491 24.7732 14.6803 24.6912 14.7116 24.613C14.7506 24.5349 14.7819 24.4568 14.8053 24.3787C14.8366 24.2927 14.8522 24.2146 14.8522 24.1443C14.8522 24.074 14.8366 24.0076 14.8053 23.9451C14.7741 23.8826 14.7585 23.8162 14.7585 23.7458C14.7585 23.6755 14.7897 23.6287 14.8522 23.6052C14.9147 23.574 14.946 23.5193 14.946 23.4412C14.946 23.4021 14.9421 23.3669 14.9342 23.3357C14.9342 23.3044 14.9342 23.2693 14.9342 23.2302C14.9342 23.1365 14.9499 23.074 14.9811 23.0427C15.0124 23.0037 15.028 22.9529 15.028 22.8904C15.028 22.8357 15.0163 22.7966 14.9928 22.7732C14.9772 22.7419 14.9694 22.7029 14.9694 22.656C14.9694 22.6013 14.9889 22.5505 15.028 22.5037C15.0671 22.449 15.0944 22.3748 15.11 22.281C15.1647 22.1013 15.2077 21.8904 15.2389 21.6482C15.2702 21.3982 15.3053 21.1326 15.3444 20.8513C15.3913 20.5623 15.4421 20.2576 15.4967 19.9373C15.5514 19.6091 15.6296 19.281 15.7311 18.9529C15.7624 18.8435 15.7936 18.6873 15.8249 18.4841C15.8639 18.2732 15.8874 18.0544 15.8952 17.8279C15.8561 17.8044 15.8288 17.7927 15.8131 17.7927C15.7506 17.7927 15.7038 17.8435 15.6725 17.9451C15.6491 18.0466 15.61 18.1208 15.5553 18.1677C15.5163 18.199 15.4694 18.2146 15.4147 18.2146C15.3678 18.2146 15.3249 18.2263 15.2858 18.2498C15.2389 18.2888 15.1999 18.3357 15.1686 18.3904C15.1452 18.4373 15.1178 18.4841 15.0866 18.531C15.0631 18.5779 15.028 18.6248 14.9811 18.6716C14.9342 18.7185 14.8639 18.7537 14.7702 18.7771C14.7546 18.7849 14.7467 18.8044 14.7467 18.8357C14.7467 18.8591 14.7311 18.8708 14.6999 18.8708H14.6764C14.6764 18.8474 14.6569 18.8279 14.6178 18.8123C14.5866 18.7888 14.5475 18.7654 14.5006 18.7419C14.4538 18.7185 14.4108 18.6912 14.3717 18.6599C14.3405 18.6287 14.3249 18.5896 14.3249 18.5427C14.3249 18.4724 14.3405 18.4177 14.3717 18.3787C14.403 18.3396 14.446 18.3083 14.5006 18.2849C14.5553 18.2615 14.61 18.238 14.6647 18.2146C14.7272 18.1833 14.7897 18.1404 14.8522 18.0857C14.9303 18.0076 15.0163 17.9177 15.11 17.8162C15.2116 17.7146 15.3131 17.613 15.4147 17.5115C15.5163 17.4021 15.6217 17.3005 15.7311 17.2068C15.8483 17.1052 15.9655 17.0154 16.0827 16.9373C16.1061 16.9216 16.11 16.906 16.0944 16.8904C16.0866 16.8748 16.11 16.863 16.1647 16.8552C16.1881 16.8552 16.2194 16.8435 16.2585 16.8201C16.3053 16.7888 16.3483 16.7576 16.3874 16.7263C16.4342 16.6873 16.4733 16.656 16.5046 16.6326C16.5358 16.6013 16.5553 16.5857 16.5631 16.5857C16.5788 16.5857 16.5944 16.5896 16.61 16.5974C16.6335 16.5974 16.653 16.5974 16.6686 16.5974C16.7311 16.5974 16.8014 16.5818 16.8796 16.5505C16.9655 16.5115 17.1178 16.4919 17.3366 16.4919C17.4225 16.4919 17.4967 16.5193 17.5592 16.574C17.6296 16.6208 17.6647 16.7224 17.6647 16.8787C17.6647 16.9255 17.6452 16.9998 17.6061 17.1013C17.5671 17.2029 17.5241 17.324 17.4772 17.4646C17.4303 17.6052 17.3874 17.7615 17.3483 17.9333C17.3092 18.1052 17.2897 18.2849 17.2897 18.4724C17.2897 18.5505 17.2936 18.6326 17.3014 18.7185C17.3092 18.7966 17.3131 18.8748 17.3131 18.9529C17.3131 19.0935 17.2858 19.2146 17.2311 19.3162C17.1842 19.4099 17.1491 19.5232 17.1256 19.656C17.0944 19.8201 17.0788 19.9919 17.0788 20.1716C17.0788 20.3513 17.0671 20.531 17.0436 20.7107C16.9811 21.0857 16.9069 21.449 16.821 21.8005C16.735 22.1521 16.6608 22.5154 16.5983 22.8904C16.5749 23.0154 16.5358 23.1755 16.4811 23.3708C16.4342 23.5662 16.4108 23.7732 16.4108 23.9919C16.4108 24.1951 16.446 24.3826 16.5163 24.5544C16.6335 24.5466 16.7311 24.5115 16.8092 24.449C16.8874 24.3865 16.9577 24.3162 17.0202 24.238C17.0827 24.1599 17.1413 24.0779 17.196 23.9919C17.2585 23.906 17.3249 23.8318 17.3952 23.7693C17.4421 23.7302 17.5085 23.7029 17.5944 23.6873C17.6881 23.6638 17.7663 23.6326 17.8288 23.5935C17.8913 23.5544 17.9342 23.4998 17.9577 23.4294C17.9811 23.3591 18.0319 23.324 18.11 23.324C18.1256 23.324 18.1374 23.3279 18.1452 23.3357C18.153 23.3357 18.1647 23.3357 18.1803 23.3357ZM18.6139 11.5232C18.6374 11.5701 18.6491 11.6208 18.6491 11.6755C18.6491 11.7693 18.6178 11.8708 18.5553 11.9802C18.4928 12.0896 18.4225 12.1951 18.3444 12.2966C18.2741 12.3982 18.2038 12.4919 18.1335 12.5779C18.0631 12.656 18.0202 12.7107 18.0046 12.7419C17.9577 12.8435 17.9186 12.9802 17.8874 13.1521C17.8639 13.324 17.8131 13.4802 17.735 13.6208C17.7038 13.6833 17.6764 13.7302 17.653 13.7615C17.6296 13.7927 17.6022 13.863 17.571 13.9724C17.5397 14.0427 17.5006 14.1248 17.4538 14.2185C17.4069 14.3123 17.3561 14.4021 17.3014 14.488C17.2467 14.5662 17.1921 14.6365 17.1374 14.699C17.0827 14.7537 17.0319 14.781 16.985 14.781C16.7819 14.781 16.6413 14.6833 16.5631 14.488C16.4928 14.2849 16.4577 14.0466 16.4577 13.7732C16.4577 13.6638 16.4616 13.5505 16.4694 13.4333C16.485 13.3162 16.5006 13.2029 16.5163 13.0935C16.5319 12.9763 16.571 12.8904 16.6335 12.8357C16.696 12.781 16.7467 12.6951 16.7858 12.5779C16.8249 12.4763 16.8522 12.3787 16.8678 12.2849C16.8835 12.1833 16.8991 12.0896 16.9147 12.0037C16.9381 11.9177 16.9616 11.8435 16.985 11.781C17.0163 11.7107 17.0631 11.6521 17.1256 11.6052C17.1725 11.574 17.2272 11.5466 17.2897 11.5232C17.36 11.4998 17.4303 11.4841 17.5006 11.4763C17.5788 11.4607 17.653 11.449 17.7233 11.4412C17.8014 11.4333 17.8639 11.4294 17.9108 11.4294C17.9108 11.4373 17.946 11.4255 18.0163 11.3943C18.0866 11.3552 18.1647 11.3357 18.2506 11.3357C18.2663 11.3357 18.3171 11.3513 18.403 11.3826C18.4967 11.406 18.5671 11.4529 18.6139 11.5232Z"
              fill="currentColor"/>
    </symbol>
    <symbol id="arrow-down-icon-2" viewBox="0 0 31 11">
        <path d="M18.4543 0.810547L18.4543 2.63041L23.6802 2.63041L19.6889 4.9232L15.6974 7.216L11.706 4.9232L7.71464 2.63041L12.7114 2.63041L12.7114 0.810547L0.851562 0.810547L8.21722 5.49974L15.5829 10.189L22.9485 5.49974L30.3142 0.810547L18.4543 0.810547Z"
              fill="currentColor"/>
    </symbol>
    <symbol id="triangle-right-icon" viewBox="0 0 12 16">
        <path d="M11.0009 7.18095C11.5698 7.57904 11.5698 8.42145 11.0009 8.81954L2.36626 14.8623C1.70347 15.3262 0.792895 14.852 0.792895 14.043L0.792895 1.95747C0.792895 1.1485 1.70347 0.674331 2.36626 1.13817L11.0009 7.18095Z"
              fill="currentColor"/>
    </symbol>
    <symbol id="pdf-icon" viewBox="0 0 48 57">
        <path d="M47.4791 14.1241V51.9391C47.4791 54.3475 45.7088 56.2982 43.523 56.2982H12.8824C10.6967 56.2982 8.92627 54.3475 8.92627 51.9391V4.86103C8.92627 2.45264 10.6967 0.501953 12.8824 0.501953H35.1161L47.4791 14.1241Z"
              fill="#E2E4E1"/>
        <path d="M47.4797 12.9997V21.7188L35.1167 9.22013V0.581012L35.1563 0.541016L47.4797 12.9997Z" fill="#CBCCCC"/>
        <path d="M47.4797 13.0007H39.0729C36.8871 13.0007 35.1167 11.2109 35.1167 9.00108V0.501953L47.4797 13.0007Z"
              fill="#B2B3B4"/>
        <path d="M33.4743 44.0074L8.92627 44.0174V25.9592L33.4743 25.9492C34.8392 25.9492 35.9469 27.0191 35.9469 28.349V41.6176C35.9469 42.9375 34.8392 44.0074 33.4743 44.0074Z"
              fill="#CBCCCC"/>
        <path d="M2.51753 24.5098H33.4746C34.8394 24.5098 35.9472 25.6297 35.9472 27.0095V40.0782C35.9472 41.458 34.8394 42.5779 33.4746 42.5779H2.51753C1.15265 42.5779 0.0449219 41.458 0.0449219 40.0782V27.0095C0.0449219 25.6297 1.15265 24.5098 2.51753 24.5098Z"
              fill="#6D6E71"/>
        <path d="M10.005 34.449V37.3088H8.75879V29.7695H11.6171C12.438 29.7695 13.0809 29.9795 13.5458 30.4095C14.0106 30.8394 14.248 31.3994 14.248 32.1093C14.248 32.8192 14.0106 33.3792 13.5458 33.8091C13.0809 34.2391 12.438 34.449 11.6171 34.449H10.005ZM10.005 33.4392H11.6171C12.082 33.4392 12.4281 33.3192 12.6556 33.0692C12.893 32.8092 13.0117 32.4693 13.0018 32.1193C13.0117 31.7693 12.8831 31.4194 12.6556 31.1594C12.4281 30.9094 12.082 30.7794 11.6171 30.7794H10.005V33.4392Z"
              fill="white"/>
        <path d="M15.4346 37.3088V29.7695H17.8973C18.8468 29.7695 19.6083 30.0695 20.2018 30.6694C20.7952 31.2694 21.0919 32.0293 21.0919 32.9692V34.1091C21.0919 35.049 20.7952 35.8189 20.2018 36.4088C19.6083 36.9988 18.8369 37.2988 17.8973 37.2988L15.4346 37.3088ZM16.6808 30.7794V36.2989H17.8973C18.4907 36.2989 18.9655 36.0989 19.3215 35.6889C19.6776 35.279 19.8556 34.759 19.8457 34.1091V32.9592C19.8457 32.3193 19.6677 31.7993 19.3215 31.3894C18.9753 30.9794 18.4907 30.7794 17.8973 30.7794H16.6808Z"
              fill="white"/>
        <path d="M26.7099 34.0893H23.7032V37.299H22.457V29.7598H27.2242V30.7697H23.6933V33.0694H26.7V34.0893H26.7099Z"
              fill="white"/>
    </symbol>
    <symbol id="pdf-color-icon" viewBox="0 0 37 40">
        <path d="M36.9723 10.0137V36.4453C36.9723 38.1287 35.6089 39.4922 33.9255 39.4922H10.3274C8.64402 39.4922 7.28055 38.1287 7.28055 36.4453V3.53906C7.28055 1.85566 8.64402 0.492188 10.3274 0.492188H27.4509L36.9723 10.0137Z"
              fill="#E2E4E1"/>
        <path d="M36.9724 10.0136V16.6558L27.4509 7.1343V0.553052L27.4813 0.522583L36.9724 10.0136Z" fill="#CBCCCC"/>
        <path d="M36.9724 10.0137H30.4977C28.8143 10.0137 27.4509 8.6502 27.4509 6.9668V0.492188L36.9724 10.0137Z"
              fill="#B2B3B4"/>
        <path d="M26.1864 33.6346L7.28055 33.6422V19.8855L26.1864 19.8779C27.2376 19.8779 28.0907 20.693 28.0907 21.7061V31.8141C28.0907 32.8195 27.2376 33.6346 26.1864 33.6346Z"
              fill="#CBCCCC"/>
        <path d="M2.3446 18.781H26.1864C27.2376 18.781 28.0907 19.6341 28.0907 20.6853V30.641C28.0907 31.6921 27.2376 32.5453 26.1864 32.5453H2.3446C1.29343 32.5453 0.440308 31.6921 0.440308 30.641V20.6853C0.440308 19.6341 1.29343 18.781 2.3446 18.781Z"
              fill="#6699CC"/>
        <path d="M8.11086 26.3523V28.5308H7.15109V22.7875H9.35246C9.98469 22.7875 10.4798 22.9474 10.8378 23.275C11.1958 23.6025 11.3786 24.0291 11.3786 24.5699C11.3786 25.1107 11.1958 25.5373 10.8378 25.8648C10.4798 26.1924 9.98469 26.3523 9.35246 26.3523H8.11086ZM8.11086 25.583H9.35246C9.71047 25.583 9.97707 25.4916 10.1523 25.3011C10.3351 25.1031 10.4265 24.8441 10.4189 24.5775C10.4265 24.3109 10.3275 24.0443 10.1523 23.8463C9.97707 23.6558 9.71047 23.5568 9.35246 23.5568H8.11086V25.583Z"
              fill="white"/>
        <path d="M12.2929 28.531V22.7876H14.1896C14.9208 22.7876 15.5073 23.0161 15.9644 23.4731C16.4214 23.9302 16.6499 24.5091 16.6499 25.2251V26.0935C16.6499 26.8095 16.4214 27.396 15.9644 27.8454C15.5073 28.2948 14.9132 28.5233 14.1896 28.5233L12.2929 28.531ZM13.2526 23.5569V27.7616H14.1896C14.6466 27.7616 15.0122 27.6093 15.2864 27.297C15.5607 26.9847 15.6978 26.5886 15.6901 26.0935V25.2175C15.6901 24.73 15.553 24.3339 15.2864 24.0216C15.0198 23.7093 14.6466 23.5569 14.1896 23.5569H13.2526Z"
              fill="white"/>
        <path d="M20.9762 26.0783H18.6606V28.5234H17.7008V22.78H21.3723V23.5494H18.653V25.3013H20.9686V26.0783H20.9762Z"
              fill="white"/>
    </symbol>
    <symbol id="fb2-color-icon" viewBox="0 0 37 40">
        <path d="M37.3936 9.64453V36.0762C37.3936 37.7596 36.0301 39.123 34.3467 39.123H10.7487C9.06529 39.123 7.70181 37.7596 7.70181 36.0762V3.16992C7.70181 1.48652 9.06529 0.123047 10.7487 0.123047H27.8721L37.3936 9.64453Z"
              fill="#E2E4E1"/>
        <path d="M37.3936 9.64446V16.2866L27.8721 6.76516V0.183911L27.9026 0.153442L37.3936 9.64446Z" fill="#CBCCCC"/>
        <path d="M37.3936 9.64453H30.919C29.2356 9.64453 27.8721 8.28105 27.8721 6.59766V0.123047L37.3936 9.64453Z"
              fill="#B2B3B4"/>
        <path d="M26.6077 33.2654L7.70181 33.273V19.5163L26.6077 19.5087C27.6588 19.5087 28.512 20.3238 28.512 21.3369V31.4449C28.512 32.4503 27.6588 33.2654 26.6077 33.2654Z"
              fill="#CBCCCC"/>
        <path d="M2.76587 18.4119H26.6077C27.6588 18.4119 28.512 19.2651 28.512 20.3162V30.2719C28.512 31.3231 27.6588 32.1762 26.6077 32.1762H2.76587C1.7147 32.1762 0.861572 31.3231 0.861572 30.2719V20.3162C0.861572 19.2651 1.7147 18.4119 2.76587 18.4119Z"
              fill="#6699CC"/>
        <path d="M7.45701 28.2867V21.7412H11.3817V22.4444H8.24963V24.656H11.0877V25.3591H8.24963V28.2867H7.45701ZM12.4692 28.2867V21.7412H14.7576C15.2136 21.7412 15.5896 21.8201 15.8858 21.9777C16.182 22.1333 16.4025 22.3431 16.5474 22.6073C16.6923 22.8694 16.7647 23.1603 16.7647 23.4799C16.7647 23.7611 16.7146 23.9934 16.6145 24.1766C16.5165 24.3598 16.3865 24.5047 16.2246 24.6113C16.0648 24.7178 15.8911 24.7966 15.7036 24.8478V24.9117C15.9039 24.9245 16.1052 24.9948 16.3077 25.1226C16.5101 25.2505 16.6795 25.4337 16.8158 25.6723C16.9522 25.911 17.0204 26.2029 17.0204 26.548C17.0204 26.8762 16.9458 27.1713 16.7967 27.4333C16.6475 27.6954 16.4121 27.9032 16.0903 28.0566C15.7686 28.21 15.3499 28.2867 14.8343 28.2867H12.4692ZM13.2619 27.5836H14.8343C15.3521 27.5836 15.7196 27.4834 15.9369 27.2831C16.1564 27.0807 16.2661 26.8357 16.2661 26.548C16.2661 26.3265 16.2097 26.1219 16.0967 25.9344C15.9838 25.7448 15.8229 25.5935 15.6141 25.4806C15.4053 25.3655 15.1582 25.308 14.8727 25.308H13.2619V27.5836ZM13.2619 24.6176H14.732C14.9707 24.6176 15.1859 24.5708 15.3776 24.477C15.5715 24.3833 15.7249 24.2512 15.8378 24.0807C15.9529 23.9103 16.0104 23.71 16.0104 23.4799C16.0104 23.1922 15.9103 22.9483 15.71 22.748C15.5097 22.5456 15.1923 22.4444 14.7576 22.4444H13.2619V24.6176ZM17.9377 28.2867V27.7114L20.0982 25.3463C20.3518 25.0694 20.5606 24.8286 20.7246 24.624C20.8887 24.4174 21.0101 24.2235 21.089 24.0424C21.1699 23.8591 21.2104 23.6674 21.2104 23.4671C21.2104 23.237 21.155 23.0377 21.0442 22.8694C20.9356 22.7011 20.7864 22.5711 20.5968 22.4795C20.4072 22.3879 20.1941 22.3421 19.9576 22.3421C19.7062 22.3421 19.4867 22.3943 19.2992 22.4987C19.1138 22.601 18.97 22.7448 18.8677 22.9301C18.7676 23.1155 18.7175 23.3328 18.7175 23.5821H17.9633C17.9633 23.1986 18.0517 22.862 18.2285 22.5722C18.4054 22.2824 18.6462 22.0566 18.9508 21.8946C19.2577 21.7327 19.6018 21.6517 19.9832 21.6517C20.3667 21.6517 20.7065 21.7327 21.0027 21.8946C21.2989 22.0566 21.5311 22.275 21.6994 22.5498C21.8677 22.8247 21.9519 23.1304 21.9519 23.4671C21.9519 23.7078 21.9082 23.9433 21.8209 24.1734C21.7356 24.4014 21.5865 24.656 21.3734 24.9373C21.1625 25.2164 20.8695 25.5573 20.4945 25.96L19.0243 27.5324V27.5836H22.067V28.2867H17.9377Z"
              fill="white"/>

    </symbol>
    <symbol id="epub-color-icon" viewBox="0 0 37 40">
        <path d="M37.4407 10.2755V36.7071C37.4407 38.3905 36.0772 39.754 34.3939 39.754H10.7958C9.11241 39.754 7.74893 38.3905 7.74893 36.7071V3.80084C7.74893 2.11744 9.11241 0.753967 10.7958 0.753967H27.9192L37.4407 10.2755Z"
              fill="#E2E4E1"/>
        <path d="M37.4407 10.2754V16.9176L27.9193 7.39608V0.814832L27.9497 0.784363L37.4407 10.2754Z" fill="#CBCCCC"/>
        <path d="M37.4407 10.2755H30.9661C29.2827 10.2755 27.9193 8.91197 27.9193 7.22858V0.753967L37.4407 10.2755Z"
              fill="#B2B3B4"/>
        <path d="M26.6548 33.8963L7.74893 33.9039V20.1473L26.6548 20.1396C27.706 20.1396 28.5591 20.9547 28.5591 21.9678V32.0758C28.5591 33.0812 27.706 33.8963 26.6548 33.8963Z"
              fill="#CBCCCC"/>
        <path d="M2.81299 19.0428H26.6548C27.706 19.0428 28.5591 19.896 28.5591 20.9471V30.9028C28.5591 31.954 27.706 32.8071 26.6548 32.8071H2.81299C1.76182 32.8071 0.908691 31.954 0.908691 30.9028V20.9471C0.908691 19.896 1.76182 19.0428 2.81299 19.0428Z"
              fill="#6699CC"/>
        <path d="M4.12352 29.0395V22.494H8.0738V23.1972H4.91613V25.4088H7.86926V26.1119H4.91613V28.3364H8.12494V29.0395H4.12352ZM9.23243 29.0395V22.494H11.4441C11.9576 22.494 12.3773 22.5867 12.7033 22.7721C13.0314 22.9553 13.2743 23.2036 13.432 23.5168C13.5897 23.83 13.6685 24.1794 13.6685 24.5651C13.6685 24.9507 13.5897 25.3012 13.432 25.6165C13.2765 25.9319 13.0357 26.1833 12.7097 26.3708C12.3837 26.5562 11.9661 26.6489 11.4569 26.6489H9.87163V25.9457H11.4313C11.7829 25.9457 12.0652 25.885 12.2782 25.7636C12.4913 25.6421 12.6458 25.4781 12.7417 25.2714C12.8397 25.0626 12.8887 24.8271 12.8887 24.5651C12.8887 24.303 12.8397 24.0686 12.7417 23.8619C12.6458 23.6553 12.4902 23.4933 12.275 23.3761C12.0598 23.2568 11.7743 23.1972 11.4185 23.1972H10.025V29.0395H9.23243ZM18.9708 22.494H19.7634V26.8278C19.7634 27.2753 19.6579 27.6748 19.447 28.0264C19.2382 28.3758 18.9431 28.6517 18.5617 28.8541C18.1803 29.0544 17.7328 29.1545 17.2194 29.1545C16.7059 29.1545 16.2584 29.0544 15.877 28.8541C15.4956 28.6517 15.1995 28.3758 14.9885 28.0264C14.7797 27.6748 14.6753 27.2753 14.6753 26.8278V22.494H15.4679V26.7639C15.4679 27.0835 15.5382 27.368 15.6789 27.6173C15.8195 27.8644 16.0198 28.0594 16.2797 28.2021C16.5418 28.3428 16.855 28.4131 17.2194 28.4131C17.5837 28.4131 17.8969 28.3428 18.159 28.2021C18.4211 28.0594 18.6213 27.8644 18.7598 27.6173C18.9005 27.368 18.9708 27.0835 18.9708 26.7639V22.494ZM21.0762 29.0395V22.494H23.3646C23.8205 22.494 24.1966 22.5729 24.4928 22.7305C24.7889 22.8861 25.0095 23.096 25.1543 23.3602C25.2992 23.6222 25.3717 23.9131 25.3717 24.2327C25.3717 24.5139 25.3216 24.7462 25.2215 24.9294C25.1234 25.1126 24.9935 25.2575 24.8315 25.3641C24.6717 25.4706 24.4981 25.5494 24.3106 25.6006V25.6645C24.5109 25.6773 24.7122 25.7476 24.9146 25.8754C25.1171 26.0033 25.2864 26.1865 25.4228 26.4251C25.5592 26.6638 25.6274 26.9557 25.6274 27.3009C25.6274 27.629 25.5528 27.9241 25.4036 28.1862C25.2545 28.4482 25.019 28.656 24.6973 28.8094C24.3756 28.9628 23.9569 29.0395 23.4413 29.0395H21.0762ZM21.8688 28.3364H23.4413C23.959 28.3364 24.3266 28.2362 24.5439 28.0359C24.7634 27.8335 24.8731 27.5885 24.8731 27.3009C24.8731 27.0793 24.8166 26.8747 24.7037 26.6872C24.5908 26.4976 24.4299 26.3463 24.2211 26.2334C24.0123 26.1183 23.7651 26.0608 23.4796 26.0608H21.8688V28.3364ZM21.8688 25.3705H23.339C23.5776 25.3705 23.7928 25.3236 23.9846 25.2298C24.1785 25.1361 24.3319 25.004 24.4448 24.8335C24.5599 24.6631 24.6174 24.4628 24.6174 24.2327C24.6174 23.945 24.5173 23.7011 24.317 23.5008C24.1167 23.2984 23.7992 23.1972 23.3646 23.1972H21.8688V25.3705Z"
              fill="white"/>
    </symbol>
    <symbol id="doc-color-icon" viewBox="0 0 46 49">
        <path d="M45.4308 12.3408V45.2109C45.4308 47.3044 43.7352 49 41.6418 49H12.2955C10.202 49 8.50644 47.3044 8.50644 45.2109V4.28906C8.50644 2.19561 10.202 0.5 12.2955 0.5H33.59L45.4308 12.3408Z"
              fill="#E2E4E1"/>
        <path d="M45.4308 12.3408V20.6009L33.59 8.76011V0.575732L33.6279 0.537842L45.4308 12.3408Z" fill="#CBCCCC"/>
        <path d="M45.4308 12.3408H37.3791C35.2856 12.3408 33.59 10.6452 33.59 8.55176V0.5L45.4308 12.3408Z"
              fill="#B2B3B4"/>
        <path d="M32.0176 41.7154L8.50644 41.7249V24.6173L32.0176 24.6078C33.3248 24.6078 34.3857 25.6214 34.3857 26.8812V39.4514C34.3857 40.7018 33.3248 41.7154 32.0176 41.7154Z"
              fill="#CBCCCC"/>
        <path d="M2.36816 23.2439H32.0176C33.3248 23.2439 34.3857 24.3048 34.3857 25.6121V37.9928C34.3857 39.3 33.3248 40.361 32.0176 40.361H2.36816C1.06094 40.361 0 39.3 0 37.9928V25.6121C0 24.3048 1.06094 23.2439 2.36816 23.2439Z"
              fill="#6699CC"/>
        <path d="M7.77698 35.3689V28.2266H10.1357C11.045 28.2266 11.7744 28.5107 12.3428 29.0791C12.9112 29.6475 13.1953 30.3674 13.1953 31.2578V32.3377C13.1953 33.2281 12.9112 33.9575 12.3428 34.5164C11.7744 35.0753 11.0356 35.3595 10.1357 35.3689H7.77698ZM8.96106 29.1833V34.4122H10.1262C10.6946 34.4122 11.1492 34.2228 11.4903 33.8344C11.8313 33.446 11.9923 32.9534 11.9923 32.3377V31.2483C11.9923 30.6421 11.8218 30.1495 11.4903 29.7611C11.1587 29.3728 10.704 29.1833 10.1262 29.1833H8.96106Z"
              fill="white"/>
        <path d="M20.1104 32.4418C20.1104 33.3133 19.8357 34.0333 19.2863 34.6111C18.7368 35.1889 18.0264 35.4731 17.1549 35.4731C16.3024 35.4731 15.6109 35.1889 15.0709 34.6111C14.531 34.0333 14.2657 33.3133 14.2657 32.4418V31.1536C14.2657 30.2821 14.531 29.5622 15.0709 28.9843C15.6109 28.4065 16.3024 28.1223 17.1549 28.1223C18.0264 28.1223 18.7368 28.4065 19.2863 28.9843C19.8357 29.5622 20.1104 30.2821 20.1104 31.1536V32.4418ZM18.9168 31.1441C18.9168 30.5473 18.7558 30.0642 18.4432 29.6758C18.1306 29.2969 17.6948 29.1075 17.1549 29.1075C16.6244 29.1075 16.2171 29.2969 15.914 29.6853C15.6109 30.0737 15.4593 30.5568 15.4593 31.1536V32.4513C15.4593 33.0576 15.6109 33.5501 15.914 33.9291C16.2076 34.308 16.6718 34.5258 17.1549 34.5069C17.7043 34.5069 18.1306 34.3174 18.4432 33.9385C18.7558 33.5596 18.9168 33.067 18.9168 32.4608V31.1441Z"
              fill="white"/>
        <path d="M26.5897 33.0387L26.5992 33.0671C26.6086 33.787 26.3813 34.3648 25.8982 34.8101C25.4151 35.2553 24.7709 35.4731 23.9563 35.4731C23.1227 35.4731 22.4501 35.189 21.9386 34.6301C21.4271 34.0712 21.1619 33.3513 21.1619 32.4798V31.1252C21.1619 30.2537 21.4176 29.5433 21.9291 28.9749C22.4407 28.416 23.1038 28.1318 23.9279 28.1318C24.7709 28.1318 25.4246 28.3497 25.9077 28.776C26.3908 29.2022 26.6276 29.7896 26.6086 30.5379L26.5992 30.5663H25.4435C25.4435 30.0927 25.3109 29.7232 25.0551 29.4675C24.7994 29.2117 24.4205 29.0886 23.9184 29.0886C23.4637 29.0791 23.028 29.2875 22.7722 29.6664C22.488 30.0548 22.3459 30.5379 22.3459 31.1252V32.4893C22.3459 33.086 22.488 33.5691 22.7817 33.9575C23.0564 34.3364 23.4921 34.5543 23.9563 34.5353C24.4394 34.5353 24.8088 34.4122 25.0646 34.1564C25.3204 33.9007 25.4435 33.5407 25.4435 33.0576L26.5897 33.0387Z"
              fill="white"/>
    </symbol>
    <symbol id="maket-color-icon" viewBox="0 0 46 49">
        <path d="M45.4308 11.8408V44.7109C45.4308 46.8044 43.7352 48.5 41.6418 48.5H12.2955C10.202 48.5 8.50644 46.8044 8.50644 44.7109V3.78906C8.50644 1.69561 10.202 0 12.2955 0H33.59L45.4308 11.8408Z"
              fill="#E2E4E1"/>
        <path d="M45.4308 11.8408V20.1009L33.59 8.26011V0.0757324L33.6279 0.0378418L45.4308 11.8408Z" fill="#CBCCCC"/>
        <path d="M45.4308 11.8408H37.3791C35.2856 11.8408 33.59 10.1452 33.59 8.05176V0L45.4308 11.8408Z"
              fill="#B2B3B4"/>
        <path d="M32.0176 41.2155L8.50644 41.2249V24.1173L32.0176 24.1078C33.3248 24.1078 34.3857 25.1214 34.3857 26.3813V38.9515C34.3857 40.2019 33.3248 41.2155 32.0176 41.2155Z"
              fill="#CBCCCC"/>
        <path d="M2.36816 22.7438H32.0176C33.3248 22.7438 34.3857 23.8048 34.3857 25.112V37.4928C34.3857 38.8 33.3248 39.8609 32.0176 39.8609H2.36816C1.06094 39.8609 0 38.8 0 37.4928V25.112C0 23.8048 1.06094 22.7438 2.36816 22.7438Z"
              fill="#6699CC"/>
        <path d="M2.99535 27.925H3.94138L6.16581 33.3582H6.24251L8.46694 27.925H9.41297V34.4705H8.67149V29.4974H8.60757L6.56211 34.4705H5.8462L3.80075 29.4974H3.73683V34.4705H2.99535V27.925ZM11.0007 34.4705H10.1697L12.5731 27.925H13.3913L15.7947 34.4705H14.9637L13.0078 28.9605H12.9566L11.0007 34.4705ZM11.3075 31.9136H14.6569V32.6168H11.3075V31.9136ZM20.3922 34.4705L18.1422 31.4662H17.3368V34.4705H16.5442V27.925H17.3368V30.7631H17.682L20.3027 27.925H21.2488L18.6025 30.8014L21.3383 34.4705H20.3922ZM22.0926 34.4705V27.925H26.0429V28.6281H22.8852V30.8398H25.8383V31.5429H22.8852V33.7673H26.094V34.4705H22.0926ZM26.8435 28.6281V27.925H31.7526V28.6281H29.6944V34.4705H28.9018V28.6281H26.8435Z"
              fill="white"/>
    </symbol>
    <symbol id="headphones-icon" viewBox="0 0 37 40">
        <path d="M35.8267 29.27V19.975C35.8267 9.70803 28.2332 1.38501 18.8662 1.38501C9.49922 1.38501 1.90576 9.70803 1.90576 19.975V31.129"
              stroke="currentColor" stroke-width="2"/>
        <path d="M12.0821 25.8998C12.0821 24.8247 12.0821 24.2871 11.965 23.8601C11.6942 22.8728 10.9874 22.124 10.1075 21.8922C9.72697 21.7921 9.25945 21.8343 8.32441 21.9189C6.70171 22.0658 5.89037 22.1392 5.2289 22.4197C3.70364 23.0663 2.53991 24.5098 2.09758 26.3038C1.90576 27.0817 1.90576 28.0148 1.90576 29.8807V30.2255C1.90576 32.1386 1.90576 33.0952 2.11446 33.9045C2.52404 35.493 3.50344 36.8069 4.80826 37.5184C5.47311 37.8809 6.29737 38.0301 7.94588 38.3285C9.03988 38.5265 9.58688 38.6256 10.0296 38.5256C10.9018 38.3287 11.6212 37.6239 11.9269 36.6671C12.0821 36.1814 12.0821 35.5465 12.0821 34.277V25.8998Z"
              stroke="currentColor" stroke-width="2"/>
        <path d="M25.6504 25.8998C25.6504 24.8247 25.6504 24.2871 25.7674 23.8601C26.0381 22.8728 26.745 22.124 27.6249 21.8922C28.0055 21.7921 28.473 21.8343 29.408 21.9189C31.0308 22.0658 31.842 22.1392 32.5036 22.4197C34.0289 23.0663 35.1925 24.5098 35.6349 26.3038C35.8267 27.0817 35.8267 28.0148 35.8267 29.8807V30.2255C35.8267 32.1386 35.8267 33.0952 35.6181 33.9045C35.2085 35.493 34.229 36.8069 32.9242 37.5184C32.2594 37.8809 31.4351 38.0301 29.7865 38.3285C28.6926 38.5265 28.1456 38.6256 27.7029 38.5256C26.8307 38.3287 26.1112 37.6239 25.8056 36.6671C25.6504 36.1814 25.6504 35.5465 25.6504 34.277V25.8998Z"
              stroke="currentColor" stroke-width="2"/>
        <path d="M18.8662 9.75061V19.0456" stroke="currentColor" stroke-width="2" stroke-linecap="round"/>
        <path d="M23.9544 12.539V16.257" stroke="currentColor" stroke-width="2" stroke-linecap="round"/>
        <path d="M13.778 12.539V16.257" stroke="currentColor" stroke-width="2" stroke-linecap="round"/>
    </symbol>
    <symbol id="printer-icon" viewBox="0 0 32 32">
        <path d="M10.3716 2.61719C9.34559 2.61719 8.36157 3.01228 7.63605 3.71554C6.91052 4.4188 6.50293 5.37263 6.50293 6.36719V8.24219H25.8465V6.36719C25.8465 5.37263 25.4389 4.4188 24.7134 3.71554C23.9878 3.01228 23.0038 2.61719 21.9778 2.61719H10.3716ZM21.9778 17.6172H10.3716C9.85862 17.6172 9.36661 17.8147 9.00384 18.1664C8.64108 18.518 8.43729 18.9949 8.43729 19.4922V25.1172C8.43729 25.6145 8.64108 26.0914 9.00384 26.443C9.36661 26.7946 9.85862 26.9922 10.3716 26.9922H21.9778C22.4908 26.9922 22.9828 26.7946 23.3456 26.443C23.7083 26.0914 23.9121 25.6145 23.9121 25.1172V19.4922C23.9121 18.9949 23.7083 18.518 23.3456 18.1664C22.9828 17.8147 22.4908 17.6172 21.9778 17.6172Z"
              fill="currentColor"/>
        <path d="M0.700195 13.8672C0.700195 12.8726 1.1078 11.9188 1.83335 11.2155C2.5589 10.5123 3.54296 10.1172 4.56904 10.1172H27.7821C28.8082 10.1172 29.7922 10.5123 30.5178 11.2155C31.2433 11.9188 31.651 12.8726 31.651 13.8672V19.4922C31.651 20.4867 31.2433 21.4406 30.5178 22.1438C29.7922 22.8471 28.8082 23.2422 27.7821 23.2422H25.8477V19.4922C25.8477 18.4976 25.4401 17.5438 24.7145 16.8405C23.989 16.1373 23.0049 15.7422 21.9788 15.7422H10.3723C9.34623 15.7422 8.36217 16.1373 7.63662 16.8405C6.91107 17.5438 6.50346 18.4976 6.50346 19.4922V23.2422H4.56904C3.54296 23.2422 2.5589 22.8471 1.83335 22.1438C1.1078 21.4406 0.700195 20.4867 0.700195 19.4922V13.8672ZM5.53625 15.7422C5.79277 15.7422 6.03879 15.6434 6.22017 15.4676C6.40156 15.2918 6.50346 15.0533 6.50346 14.8047C6.50346 14.556 6.40156 14.3176 6.22017 14.1418C6.03879 13.966 5.79277 13.8672 5.53625 13.8672C5.27973 13.8672 5.03372 13.966 4.85233 14.1418C4.67094 14.3176 4.56904 14.556 4.56904 14.8047C4.56904 15.0533 4.67094 15.2918 4.85233 15.4676C5.03372 15.6434 5.27973 15.7422 5.53625 15.7422Z"
              fill="currentColor"/>
    </symbol>
</svg>